<mxfile host="app.diagrams.net" agent="Mozilla/5.0 (Windows NT 10.0; Win64; x64; rv:133.0) Gecko/20100101 Firefox/133.0" version="25.0.1">
  <diagram name="Stránka-1" id="hBw3o54_oPbg6Phv4OLk">
    <mxGraphModel dx="1410" dy="2606" grid="1" gridSize="10" guides="1" tooltips="1" connect="1" arrows="1" fold="1" page="1" pageScale="1" pageWidth="827" pageHeight="1169" math="0" shadow="0">
      <root>
        <mxCell id="0" />
        <mxCell id="1" parent="0" />
        <mxCell id="jX2C6xq7MHJStbMYzHnA-5" value="Skupinový/Samostatný projekt" style="swimlane;whiteSpace=wrap;html=1;" parent="1" vertex="1">
          <mxGeometry x="475" y="200" width="305" height="210" as="geometry" />
        </mxCell>
        <mxCell id="jX2C6xq7MHJStbMYzHnA-6" value="Dynamické webové stránky" style="rounded=1;whiteSpace=wrap;html=1;" parent="jX2C6xq7MHJStbMYzHnA-5" vertex="1">
          <mxGeometry x="15" y="35" width="115" height="55" as="geometry" />
        </mxCell>
        <mxCell id="jX2C6xq7MHJStbMYzHnA-7" value="Grafická aplikace ve vyšším prog. jazyku" style="rounded=1;whiteSpace=wrap;html=1;" parent="jX2C6xq7MHJStbMYzHnA-5" vertex="1">
          <mxGeometry x="155" y="35" width="125" height="55" as="geometry" />
        </mxCell>
        <mxCell id="jX2C6xq7MHJStbMYzHnA-8" value="Databáze&lt;br&gt;(komunikace skrze SQL)" style="rounded=1;whiteSpace=wrap;html=1;" parent="jX2C6xq7MHJStbMYzHnA-5" vertex="1">
          <mxGeometry x="75" y="130" width="145" height="60" as="geometry" />
        </mxCell>
        <mxCell id="jX2C6xq7MHJStbMYzHnA-9" value="" style="endArrow=classic;startArrow=classic;html=1;rounded=0;" parent="jX2C6xq7MHJStbMYzHnA-5" source="jX2C6xq7MHJStbMYzHnA-8" target="jX2C6xq7MHJStbMYzHnA-6" edge="1">
          <mxGeometry width="50" height="50" relative="1" as="geometry">
            <mxPoint x="175" y="215" as="sourcePoint" />
            <mxPoint x="225" y="165" as="targetPoint" />
          </mxGeometry>
        </mxCell>
        <mxCell id="jX2C6xq7MHJStbMYzHnA-10" value="" style="endArrow=classic;startArrow=classic;html=1;rounded=0;" parent="jX2C6xq7MHJStbMYzHnA-5" source="jX2C6xq7MHJStbMYzHnA-8" target="jX2C6xq7MHJStbMYzHnA-7" edge="1">
          <mxGeometry width="50" height="50" relative="1" as="geometry">
            <mxPoint x="149" y="155" as="sourcePoint" />
            <mxPoint x="116" y="115" as="targetPoint" />
          </mxGeometry>
        </mxCell>
        <mxCell id="jX2C6xq7MHJStbMYzHnA-11" value="Databáze" style="swimlane;whiteSpace=wrap;html=1;" parent="1" vertex="1">
          <mxGeometry x="530" y="440" width="220" height="210" as="geometry" />
        </mxCell>
        <mxCell id="jX2C6xq7MHJStbMYzHnA-12" value="ER-diagram" style="rounded=1;whiteSpace=wrap;html=1;" parent="jX2C6xq7MHJStbMYzHnA-11" vertex="1">
          <mxGeometry x="10" y="45" width="82.5" height="40" as="geometry" />
        </mxCell>
        <mxCell id="jX2C6xq7MHJStbMYzHnA-13" value="Vztahy mezi entitami/atributy" style="rounded=1;whiteSpace=wrap;html=1;" parent="jX2C6xq7MHJStbMYzHnA-11" vertex="1">
          <mxGeometry x="60" y="120" width="87.5" height="70" as="geometry" />
        </mxCell>
        <mxCell id="jX2C6xq7MHJStbMYzHnA-14" value="Dotazy SQL zapsané v samostatném souboru" style="rounded=1;whiteSpace=wrap;html=1;" parent="jX2C6xq7MHJStbMYzHnA-11" vertex="1">
          <mxGeometry x="120" y="30" width="90" height="70" as="geometry" />
        </mxCell>
        <mxCell id="jX2C6xq7MHJStbMYzHnA-15" value="" style="endArrow=classic;startArrow=classic;html=1;rounded=0;" parent="jX2C6xq7MHJStbMYzHnA-11" source="jX2C6xq7MHJStbMYzHnA-12" target="jX2C6xq7MHJStbMYzHnA-13" edge="1">
          <mxGeometry width="50" height="50" relative="1" as="geometry">
            <mxPoint x="-130" y="160" as="sourcePoint" />
            <mxPoint x="-80" y="110" as="targetPoint" />
          </mxGeometry>
        </mxCell>
        <mxCell id="jX2C6xq7MHJStbMYzHnA-16" value="" style="endArrow=classic;startArrow=classic;html=1;rounded=0;" parent="jX2C6xq7MHJStbMYzHnA-11" source="jX2C6xq7MHJStbMYzHnA-14" target="jX2C6xq7MHJStbMYzHnA-13" edge="1">
          <mxGeometry width="50" height="50" relative="1" as="geometry">
            <mxPoint x="93" y="78" as="sourcePoint" />
            <mxPoint x="130" y="77" as="targetPoint" />
          </mxGeometry>
        </mxCell>
        <mxCell id="jX2C6xq7MHJStbMYzHnA-17" value="" style="endArrow=classic;startArrow=classic;html=1;rounded=0;" parent="jX2C6xq7MHJStbMYzHnA-11" source="jX2C6xq7MHJStbMYzHnA-14" target="jX2C6xq7MHJStbMYzHnA-12" edge="1">
          <mxGeometry width="50" height="50" relative="1" as="geometry">
            <mxPoint x="138" y="130" as="sourcePoint" />
            <mxPoint x="151" y="110" as="targetPoint" />
          </mxGeometry>
        </mxCell>
        <mxCell id="jX2C6xq7MHJStbMYzHnA-18" value="" style="endArrow=classic;html=1;rounded=0;" parent="1" source="jX2C6xq7MHJStbMYzHnA-11" target="jX2C6xq7MHJStbMYzHnA-8" edge="1">
          <mxGeometry width="50" height="50" relative="1" as="geometry">
            <mxPoint x="520" y="470" as="sourcePoint" />
            <mxPoint x="570" y="420" as="targetPoint" />
          </mxGeometry>
        </mxCell>
        <mxCell id="jX2C6xq7MHJStbMYzHnA-19" value="ER-diagram" style="swimlane;whiteSpace=wrap;html=1;" parent="1" vertex="1">
          <mxGeometry x="290" y="440" width="210" height="180" as="geometry" />
        </mxCell>
        <mxCell id="jX2C6xq7MHJStbMYzHnA-20" value="Veškeré atributy (sloupce)" style="rounded=1;whiteSpace=wrap;html=1;" parent="jX2C6xq7MHJStbMYzHnA-19" vertex="1">
          <mxGeometry x="120" y="30" width="80" height="50" as="geometry" />
        </mxCell>
        <mxCell id="jX2C6xq7MHJStbMYzHnA-21" value="Veškeré vlastnosti&lt;br&gt;(dat. typy, ...) " style="rounded=1;whiteSpace=wrap;html=1;" parent="jX2C6xq7MHJStbMYzHnA-19" vertex="1">
          <mxGeometry x="110" y="100" width="90" height="60" as="geometry" />
        </mxCell>
        <mxCell id="jX2C6xq7MHJStbMYzHnA-22" value="" style="endArrow=classic;html=1;rounded=0;" parent="jX2C6xq7MHJStbMYzHnA-19" source="jX2C6xq7MHJStbMYzHnA-21" target="jX2C6xq7MHJStbMYzHnA-20" edge="1">
          <mxGeometry width="50" height="50" relative="1" as="geometry">
            <mxPoint x="280" y="120" as="sourcePoint" />
            <mxPoint x="330" y="70" as="targetPoint" />
          </mxGeometry>
        </mxCell>
        <mxCell id="jX2C6xq7MHJStbMYzHnA-23" value="Veškeré entity (tabulky)" style="rounded=1;whiteSpace=wrap;html=1;" parent="jX2C6xq7MHJStbMYzHnA-19" vertex="1">
          <mxGeometry x="10" y="30" width="90" height="50" as="geometry" />
        </mxCell>
        <mxCell id="jX2C6xq7MHJStbMYzHnA-24" value="" style="endArrow=classic;html=1;rounded=0;" parent="jX2C6xq7MHJStbMYzHnA-19" source="jX2C6xq7MHJStbMYzHnA-20" target="jX2C6xq7MHJStbMYzHnA-23" edge="1">
          <mxGeometry width="50" height="50" relative="1" as="geometry">
            <mxPoint x="280" y="120" as="sourcePoint" />
            <mxPoint x="330" y="70" as="targetPoint" />
          </mxGeometry>
        </mxCell>
        <mxCell id="jX2C6xq7MHJStbMYzHnA-25" value="Veškeré vztahy" style="rounded=1;whiteSpace=wrap;html=1;" parent="jX2C6xq7MHJStbMYzHnA-19" vertex="1">
          <mxGeometry x="15" y="100" width="80" height="50" as="geometry" />
        </mxCell>
        <mxCell id="jX2C6xq7MHJStbMYzHnA-26" value="" style="endArrow=classic;html=1;rounded=0;" parent="jX2C6xq7MHJStbMYzHnA-19" source="jX2C6xq7MHJStbMYzHnA-25" target="jX2C6xq7MHJStbMYzHnA-20" edge="1">
          <mxGeometry width="50" height="50" relative="1" as="geometry">
            <mxPoint x="170" y="110" as="sourcePoint" />
            <mxPoint x="170" y="90" as="targetPoint" />
          </mxGeometry>
        </mxCell>
        <mxCell id="jX2C6xq7MHJStbMYzHnA-27" value="" style="endArrow=classic;html=1;rounded=0;" parent="1" source="jX2C6xq7MHJStbMYzHnA-19" target="jX2C6xq7MHJStbMYzHnA-12" edge="1">
          <mxGeometry width="50" height="50" relative="1" as="geometry">
            <mxPoint x="440" y="550" as="sourcePoint" />
            <mxPoint x="490" y="500" as="targetPoint" />
          </mxGeometry>
        </mxCell>
        <mxCell id="jX2C6xq7MHJStbMYzHnA-28" value="Vlastnosti atributů v DB" style="swimlane;whiteSpace=wrap;html=1;" parent="1" vertex="1">
          <mxGeometry x="370" y="670" width="200" height="190" as="geometry" />
        </mxCell>
        <mxCell id="jX2C6xq7MHJStbMYzHnA-29" value="Vlastní klíč&lt;br&gt;Primary key&lt;br&gt;PK" style="rounded=1;whiteSpace=wrap;html=1;" parent="jX2C6xq7MHJStbMYzHnA-28" vertex="1">
          <mxGeometry x="100" y="70" width="90" height="50" as="geometry" />
        </mxCell>
        <mxCell id="jX2C6xq7MHJStbMYzHnA-30" value="Cizí klíč&lt;br&gt;Foreign key&lt;br&gt;FK" style="rounded=1;whiteSpace=wrap;html=1;" parent="jX2C6xq7MHJStbMYzHnA-28" vertex="1">
          <mxGeometry x="100" y="130" width="90" height="50" as="geometry" />
        </mxCell>
        <mxCell id="jX2C6xq7MHJStbMYzHnA-31" value="NOT NULL" style="rounded=1;whiteSpace=wrap;html=1;" parent="jX2C6xq7MHJStbMYzHnA-28" vertex="1">
          <mxGeometry x="10" y="70" width="80" height="30" as="geometry" />
        </mxCell>
        <mxCell id="jX2C6xq7MHJStbMYzHnA-32" value="AUTO INCREMENT" style="rounded=1;whiteSpace=wrap;html=1;" parent="jX2C6xq7MHJStbMYzHnA-28" vertex="1">
          <mxGeometry x="10" y="150" width="80" height="30" as="geometry" />
        </mxCell>
        <mxCell id="jX2C6xq7MHJStbMYzHnA-33" value="DEFAULT" style="rounded=1;whiteSpace=wrap;html=1;" parent="jX2C6xq7MHJStbMYzHnA-28" vertex="1">
          <mxGeometry x="10" y="110" width="80" height="30" as="geometry" />
        </mxCell>
        <mxCell id="jX2C6xq7MHJStbMYzHnA-34" value="UNIQUE" style="rounded=1;whiteSpace=wrap;html=1;" parent="jX2C6xq7MHJStbMYzHnA-28" vertex="1">
          <mxGeometry x="105" y="30" width="80" height="30" as="geometry" />
        </mxCell>
        <mxCell id="jX2C6xq7MHJStbMYzHnA-35" value="Datové typy" style="rounded=1;whiteSpace=wrap;html=1;" parent="jX2C6xq7MHJStbMYzHnA-28" vertex="1">
          <mxGeometry x="10" y="30" width="80" height="30" as="geometry" />
        </mxCell>
        <mxCell id="jX2C6xq7MHJStbMYzHnA-36" value="" style="endArrow=classic;html=1;rounded=0;" parent="jX2C6xq7MHJStbMYzHnA-28" source="jX2C6xq7MHJStbMYzHnA-32" target="jX2C6xq7MHJStbMYzHnA-29" edge="1">
          <mxGeometry width="50" height="50" relative="1" as="geometry">
            <mxPoint x="350" y="127" as="sourcePoint" />
            <mxPoint x="400" y="128" as="targetPoint" />
          </mxGeometry>
        </mxCell>
        <mxCell id="jX2C6xq7MHJStbMYzHnA-37" value="Datové typy v DB" style="swimlane;whiteSpace=wrap;html=1;" parent="1" vertex="1">
          <mxGeometry x="180" y="670" width="150" height="150" as="geometry" />
        </mxCell>
        <mxCell id="jX2C6xq7MHJStbMYzHnA-38" value="CHAR" style="rounded=1;whiteSpace=wrap;html=1;" parent="jX2C6xq7MHJStbMYzHnA-37" vertex="1">
          <mxGeometry x="10" y="30" width="50" height="20" as="geometry" />
        </mxCell>
        <mxCell id="jX2C6xq7MHJStbMYzHnA-39" value="VARCHAR" style="rounded=1;whiteSpace=wrap;html=1;" parent="jX2C6xq7MHJStbMYzHnA-37" vertex="1">
          <mxGeometry x="70" y="30" width="70" height="20" as="geometry" />
        </mxCell>
        <mxCell id="jX2C6xq7MHJStbMYzHnA-40" value="DATE" style="rounded=1;whiteSpace=wrap;html=1;" parent="jX2C6xq7MHJStbMYzHnA-37" vertex="1">
          <mxGeometry x="10" y="60" width="50" height="20" as="geometry" />
        </mxCell>
        <mxCell id="jX2C6xq7MHJStbMYzHnA-41" value="INT" style="rounded=1;whiteSpace=wrap;html=1;" parent="jX2C6xq7MHJStbMYzHnA-37" vertex="1">
          <mxGeometry x="70" y="120" width="30" height="20" as="geometry" />
        </mxCell>
        <mxCell id="jX2C6xq7MHJStbMYzHnA-42" value="ENUM" style="rounded=1;whiteSpace=wrap;html=1;" parent="jX2C6xq7MHJStbMYzHnA-37" vertex="1">
          <mxGeometry x="10" y="120" width="50" height="20" as="geometry" />
        </mxCell>
        <mxCell id="jX2C6xq7MHJStbMYzHnA-43" value="BOOLEAN" style="rounded=1;whiteSpace=wrap;html=1;" parent="jX2C6xq7MHJStbMYzHnA-37" vertex="1">
          <mxGeometry x="70" y="60" width="70" height="20" as="geometry" />
        </mxCell>
        <mxCell id="jX2C6xq7MHJStbMYzHnA-44" value="FLOAT" style="rounded=1;whiteSpace=wrap;html=1;" parent="jX2C6xq7MHJStbMYzHnA-37" vertex="1">
          <mxGeometry x="70" y="90" width="50" height="20" as="geometry" />
        </mxCell>
        <mxCell id="jX2C6xq7MHJStbMYzHnA-45" value="BLOB" style="rounded=1;whiteSpace=wrap;html=1;" parent="jX2C6xq7MHJStbMYzHnA-37" vertex="1">
          <mxGeometry x="10" y="90" width="50" height="20" as="geometry" />
        </mxCell>
        <mxCell id="jX2C6xq7MHJStbMYzHnA-46" value="" style="endArrow=classic;html=1;rounded=0;" parent="1" source="jX2C6xq7MHJStbMYzHnA-37" target="jX2C6xq7MHJStbMYzHnA-35" edge="1">
          <mxGeometry width="50" height="50" relative="1" as="geometry">
            <mxPoint x="390" y="710" as="sourcePoint" />
            <mxPoint x="440" y="660" as="targetPoint" />
          </mxGeometry>
        </mxCell>
        <mxCell id="jX2C6xq7MHJStbMYzHnA-47" value="Vztahy v DB" style="swimlane;whiteSpace=wrap;html=1;" parent="1" vertex="1">
          <mxGeometry x="630" y="670" width="120" height="210" as="geometry" />
        </mxCell>
        <mxCell id="jX2C6xq7MHJStbMYzHnA-48" value="1:1&lt;br&gt;1) Atribut&lt;br&gt;2) FK s UNIQUE" style="rounded=1;whiteSpace=wrap;html=1;" parent="jX2C6xq7MHJStbMYzHnA-47" vertex="1">
          <mxGeometry x="10" y="30" width="100" height="60" as="geometry" />
        </mxCell>
        <mxCell id="jX2C6xq7MHJStbMYzHnA-49" value="1:N&lt;br&gt;FK" style="rounded=1;whiteSpace=wrap;html=1;" parent="jX2C6xq7MHJStbMYzHnA-47" vertex="1">
          <mxGeometry x="25" y="100" width="70" height="40" as="geometry" />
        </mxCell>
        <mxCell id="jX2C6xq7MHJStbMYzHnA-50" value="M:N&lt;br&gt;mezitabulka s FK" style="rounded=1;whiteSpace=wrap;html=1;" parent="jX2C6xq7MHJStbMYzHnA-47" vertex="1">
          <mxGeometry x="17.5" y="150" width="85" height="50" as="geometry" />
        </mxCell>
        <mxCell id="jX2C6xq7MHJStbMYzHnA-51" value="" style="endArrow=classic;html=1;rounded=0;" parent="1" source="jX2C6xq7MHJStbMYzHnA-29" target="jX2C6xq7MHJStbMYzHnA-48" edge="1">
          <mxGeometry width="50" height="50" relative="1" as="geometry">
            <mxPoint x="550" y="690" as="sourcePoint" />
            <mxPoint x="600" y="640" as="targetPoint" />
          </mxGeometry>
        </mxCell>
        <mxCell id="jX2C6xq7MHJStbMYzHnA-52" value="" style="endArrow=classic;html=1;rounded=0;" parent="1" source="jX2C6xq7MHJStbMYzHnA-29" target="jX2C6xq7MHJStbMYzHnA-49" edge="1">
          <mxGeometry width="50" height="50" relative="1" as="geometry">
            <mxPoint x="660" y="737" as="sourcePoint" />
            <mxPoint x="710" y="738" as="targetPoint" />
          </mxGeometry>
        </mxCell>
        <mxCell id="jX2C6xq7MHJStbMYzHnA-53" value="" style="endArrow=classic;html=1;rounded=0;" parent="1" source="jX2C6xq7MHJStbMYzHnA-29" target="jX2C6xq7MHJStbMYzHnA-50" edge="1">
          <mxGeometry width="50" height="50" relative="1" as="geometry">
            <mxPoint x="670" y="747" as="sourcePoint" />
            <mxPoint x="720" y="748" as="targetPoint" />
          </mxGeometry>
        </mxCell>
        <mxCell id="jX2C6xq7MHJStbMYzHnA-54" value="" style="endArrow=classic;html=1;rounded=0;" parent="1" source="jX2C6xq7MHJStbMYzHnA-30" target="jX2C6xq7MHJStbMYzHnA-48" edge="1">
          <mxGeometry width="50" height="50" relative="1" as="geometry">
            <mxPoint x="680" y="757" as="sourcePoint" />
            <mxPoint x="730" y="758" as="targetPoint" />
          </mxGeometry>
        </mxCell>
        <mxCell id="jX2C6xq7MHJStbMYzHnA-55" value="" style="endArrow=classic;html=1;rounded=0;" parent="1" source="jX2C6xq7MHJStbMYzHnA-30" target="jX2C6xq7MHJStbMYzHnA-49" edge="1">
          <mxGeometry width="50" height="50" relative="1" as="geometry">
            <mxPoint x="690" y="767" as="sourcePoint" />
            <mxPoint x="740" y="768" as="targetPoint" />
          </mxGeometry>
        </mxCell>
        <mxCell id="jX2C6xq7MHJStbMYzHnA-56" value="" style="endArrow=classic;html=1;rounded=0;" parent="1" source="jX2C6xq7MHJStbMYzHnA-30" target="jX2C6xq7MHJStbMYzHnA-50" edge="1">
          <mxGeometry width="50" height="50" relative="1" as="geometry">
            <mxPoint x="700" y="777" as="sourcePoint" />
            <mxPoint x="750" y="778" as="targetPoint" />
          </mxGeometry>
        </mxCell>
        <mxCell id="jX2C6xq7MHJStbMYzHnA-57" value="" style="endArrow=classic;html=1;rounded=0;" parent="1" source="jX2C6xq7MHJStbMYzHnA-34" target="jX2C6xq7MHJStbMYzHnA-48" edge="1">
          <mxGeometry width="50" height="50" relative="1" as="geometry">
            <mxPoint x="710" y="787" as="sourcePoint" />
            <mxPoint x="760" y="788" as="targetPoint" />
          </mxGeometry>
        </mxCell>
        <mxCell id="jX2C6xq7MHJStbMYzHnA-58" value="" style="endArrow=classic;html=1;rounded=0;" parent="1" source="jX2C6xq7MHJStbMYzHnA-47" target="jX2C6xq7MHJStbMYzHnA-13" edge="1">
          <mxGeometry width="50" height="50" relative="1" as="geometry">
            <mxPoint x="540" y="590" as="sourcePoint" />
            <mxPoint x="590" y="540" as="targetPoint" />
          </mxGeometry>
        </mxCell>
        <mxCell id="jX2C6xq7MHJStbMYzHnA-59" value="SQL" style="swimlane;whiteSpace=wrap;html=1;" parent="1" vertex="1">
          <mxGeometry x="780" y="440" width="370" height="460" as="geometry" />
        </mxCell>
        <mxCell id="jX2C6xq7MHJStbMYzHnA-61" value="CREATE TABLE" style="rounded=1;whiteSpace=wrap;html=1;" parent="jX2C6xq7MHJStbMYzHnA-59" vertex="1">
          <mxGeometry x="10" y="30" width="60" height="40" as="geometry" />
        </mxCell>
        <mxCell id="jX2C6xq7MHJStbMYzHnA-62" value="JOIN" style="rounded=1;whiteSpace=wrap;html=1;" parent="jX2C6xq7MHJStbMYzHnA-59" vertex="1">
          <mxGeometry x="140" y="260" width="60" height="30" as="geometry" />
        </mxCell>
        <mxCell id="jX2C6xq7MHJStbMYzHnA-60" value="INSERT" style="rounded=1;whiteSpace=wrap;html=1;" parent="jX2C6xq7MHJStbMYzHnA-59" vertex="1">
          <mxGeometry x="10" y="90" width="60" height="30" as="geometry" />
        </mxCell>
        <mxCell id="jX2C6xq7MHJStbMYzHnA-65" value="SELECT" style="rounded=1;whiteSpace=wrap;html=1;" parent="jX2C6xq7MHJStbMYzHnA-59" vertex="1">
          <mxGeometry x="10" y="250" width="60" height="30" as="geometry" />
        </mxCell>
        <mxCell id="jX2C6xq7MHJStbMYzHnA-66" value="&lt;div&gt;Zobrazení jen vybraných sloupců a jejich přejmenování při zobrazení&lt;br&gt;&lt;/div&gt;" style="rounded=1;whiteSpace=wrap;html=1;" parent="jX2C6xq7MHJStbMYzHnA-59" vertex="1">
          <mxGeometry x="10" y="370" width="120" height="80" as="geometry" />
        </mxCell>
        <mxCell id="jX2C6xq7MHJStbMYzHnA-67" value="Vložení cizího klíče přes vnořený dotaz" style="rounded=1;whiteSpace=wrap;html=1;" parent="jX2C6xq7MHJStbMYzHnA-59" vertex="1">
          <mxGeometry x="95" y="45" width="220" height="30" as="geometry" />
        </mxCell>
        <mxCell id="jX2C6xq7MHJStbMYzHnA-68" value="Agregační funkce" style="rounded=1;whiteSpace=wrap;html=1;" parent="jX2C6xq7MHJStbMYzHnA-59" vertex="1">
          <mxGeometry x="140" y="300" width="120" height="27.5" as="geometry" />
        </mxCell>
        <mxCell id="jX2C6xq7MHJStbMYzHnA-70" value="ORDER BY" style="rounded=1;whiteSpace=wrap;html=1;" parent="jX2C6xq7MHJStbMYzHnA-59" vertex="1">
          <mxGeometry x="140" y="336.25" width="120" height="27.5" as="geometry" />
        </mxCell>
        <mxCell id="jX2C6xq7MHJStbMYzHnA-72" value="GROUP BY" style="rounded=1;whiteSpace=wrap;html=1;" parent="jX2C6xq7MHJStbMYzHnA-59" vertex="1">
          <mxGeometry x="140" y="380" width="120" height="27.5" as="geometry" />
        </mxCell>
        <mxCell id="jX2C6xq7MHJStbMYzHnA-71" value="Zobrazení dat z více (2 - 3) tabulek" style="rounded=1;whiteSpace=wrap;html=1;" parent="jX2C6xq7MHJStbMYzHnA-59" vertex="1">
          <mxGeometry x="230" y="255" width="120" height="40" as="geometry" />
        </mxCell>
        <mxCell id="jX2C6xq7MHJStbMYzHnA-73" value="" style="endArrow=classic;html=1;rounded=0;" parent="jX2C6xq7MHJStbMYzHnA-59" source="jX2C6xq7MHJStbMYzHnA-71" target="jX2C6xq7MHJStbMYzHnA-62" edge="1">
          <mxGeometry width="50" height="50" relative="1" as="geometry">
            <mxPoint x="240" y="272.3076923076924" as="sourcePoint" />
            <mxPoint x="-250" y="190" as="targetPoint" />
          </mxGeometry>
        </mxCell>
        <mxCell id="jX2C6xq7MHJStbMYzHnA-74" value="" style="endArrow=classic;html=1;rounded=0;" parent="jX2C6xq7MHJStbMYzHnA-59" source="jX2C6xq7MHJStbMYzHnA-62" target="jX2C6xq7MHJStbMYzHnA-65" edge="1">
          <mxGeometry width="50" height="50" relative="1" as="geometry">
            <mxPoint x="250" y="272" as="sourcePoint" />
            <mxPoint x="210" y="274" as="targetPoint" />
          </mxGeometry>
        </mxCell>
        <mxCell id="jX2C6xq7MHJStbMYzHnA-75" value="" style="endArrow=classic;html=1;rounded=0;" parent="jX2C6xq7MHJStbMYzHnA-59" source="jX2C6xq7MHJStbMYzHnA-68" target="jX2C6xq7MHJStbMYzHnA-65" edge="1">
          <mxGeometry width="50" height="50" relative="1" as="geometry">
            <mxPoint x="150" y="275" as="sourcePoint" />
            <mxPoint x="80" y="275" as="targetPoint" />
          </mxGeometry>
        </mxCell>
        <mxCell id="jX2C6xq7MHJStbMYzHnA-76" value="" style="endArrow=classic;html=1;rounded=0;" parent="jX2C6xq7MHJStbMYzHnA-59" source="jX2C6xq7MHJStbMYzHnA-70" target="jX2C6xq7MHJStbMYzHnA-65" edge="1">
          <mxGeometry width="50" height="50" relative="1" as="geometry">
            <mxPoint x="153" y="300" as="sourcePoint" />
            <mxPoint x="80" y="282" as="targetPoint" />
          </mxGeometry>
        </mxCell>
        <mxCell id="jX2C6xq7MHJStbMYzHnA-77" value="WHERE" style="rounded=1;whiteSpace=wrap;html=1;" parent="jX2C6xq7MHJStbMYzHnA-59" vertex="1">
          <mxGeometry x="140" y="170" width="60" height="30" as="geometry" />
        </mxCell>
        <mxCell id="jX2C6xq7MHJStbMYzHnA-78" value="logické fce" style="rounded=1;whiteSpace=wrap;html=1;" parent="jX2C6xq7MHJStbMYzHnA-59" vertex="1">
          <mxGeometry x="240" y="140" width="70" height="30" as="geometry" />
        </mxCell>
        <mxCell id="jX2C6xq7MHJStbMYzHnA-79" value="LIKE + wildcard" style="rounded=1;whiteSpace=wrap;html=1;" parent="jX2C6xq7MHJStbMYzHnA-59" vertex="1">
          <mxGeometry x="240" y="180" width="100" height="30" as="geometry" />
        </mxCell>
        <mxCell id="jX2C6xq7MHJStbMYzHnA-80" value="= &amp;lt; &amp;gt; IN BETWEEN" style="rounded=1;whiteSpace=wrap;html=1;" parent="jX2C6xq7MHJStbMYzHnA-59" vertex="1">
          <mxGeometry x="230" y="215" width="120" height="30" as="geometry" />
        </mxCell>
        <mxCell id="jX2C6xq7MHJStbMYzHnA-81" value="" style="endArrow=classic;html=1;rounded=0;" parent="jX2C6xq7MHJStbMYzHnA-59" source="jX2C6xq7MHJStbMYzHnA-78" target="jX2C6xq7MHJStbMYzHnA-77" edge="1">
          <mxGeometry width="50" height="50" relative="1" as="geometry">
            <mxPoint x="150" y="275" as="sourcePoint" />
            <mxPoint x="80" y="275" as="targetPoint" />
          </mxGeometry>
        </mxCell>
        <mxCell id="jX2C6xq7MHJStbMYzHnA-82" value="" style="endArrow=classic;html=1;rounded=0;" parent="jX2C6xq7MHJStbMYzHnA-59" source="jX2C6xq7MHJStbMYzHnA-79" target="jX2C6xq7MHJStbMYzHnA-77" edge="1">
          <mxGeometry width="50" height="50" relative="1" as="geometry">
            <mxPoint x="240" y="135" as="sourcePoint" />
            <mxPoint x="210" y="135" as="targetPoint" />
          </mxGeometry>
        </mxCell>
        <mxCell id="jX2C6xq7MHJStbMYzHnA-83" value="" style="endArrow=classic;html=1;rounded=0;" parent="jX2C6xq7MHJStbMYzHnA-59" source="jX2C6xq7MHJStbMYzHnA-80" target="jX2C6xq7MHJStbMYzHnA-77" edge="1">
          <mxGeometry width="50" height="50" relative="1" as="geometry">
            <mxPoint x="250" y="145" as="sourcePoint" />
            <mxPoint x="220" y="145" as="targetPoint" />
          </mxGeometry>
        </mxCell>
        <mxCell id="jX2C6xq7MHJStbMYzHnA-84" value="" style="endArrow=classic;html=1;rounded=0;" parent="jX2C6xq7MHJStbMYzHnA-59" source="jX2C6xq7MHJStbMYzHnA-77" target="jX2C6xq7MHJStbMYzHnA-65" edge="1">
          <mxGeometry width="50" height="50" relative="1" as="geometry">
            <mxPoint x="260" y="155" as="sourcePoint" />
            <mxPoint x="230" y="155" as="targetPoint" />
          </mxGeometry>
        </mxCell>
        <mxCell id="jX2C6xq7MHJStbMYzHnA-86" value="" style="endArrow=classic;html=1;rounded=0;" parent="jX2C6xq7MHJStbMYzHnA-59" source="jX2C6xq7MHJStbMYzHnA-72" target="jX2C6xq7MHJStbMYzHnA-65" edge="1">
          <mxGeometry width="50" height="50" relative="1" as="geometry">
            <mxPoint x="181" y="336" as="sourcePoint" />
            <mxPoint x="80" y="289" as="targetPoint" />
          </mxGeometry>
        </mxCell>
        <mxCell id="jX2C6xq7MHJStbMYzHnA-87" value="" style="endArrow=classic;html=1;rounded=0;" parent="jX2C6xq7MHJStbMYzHnA-59" source="jX2C6xq7MHJStbMYzHnA-66" target="jX2C6xq7MHJStbMYzHnA-65" edge="1">
          <mxGeometry width="50" height="50" relative="1" as="geometry">
            <mxPoint x="191" y="380" as="sourcePoint" />
            <mxPoint x="70" y="290" as="targetPoint" />
          </mxGeometry>
        </mxCell>
        <mxCell id="jX2C6xq7MHJStbMYzHnA-90" value="" style="endArrow=classic;html=1;rounded=0;" parent="jX2C6xq7MHJStbMYzHnA-59" source="jX2C6xq7MHJStbMYzHnA-67" target="jX2C6xq7MHJStbMYzHnA-60" edge="1">
          <mxGeometry width="50" height="50" relative="1" as="geometry">
            <mxPoint x="166" y="150" as="sourcePoint" />
            <mxPoint x="64" y="260" as="targetPoint" />
          </mxGeometry>
        </mxCell>
        <mxCell id="jX2C6xq7MHJStbMYzHnA-63" value="Vnořené dotazy aka &quot;dotaz v dotazu&quot;" style="rounded=1;whiteSpace=wrap;html=1;" parent="jX2C6xq7MHJStbMYzHnA-59" vertex="1">
          <mxGeometry x="95" y="100" width="210" height="30" as="geometry" />
        </mxCell>
        <mxCell id="jX2C6xq7MHJStbMYzHnA-91" value="" style="endArrow=classic;html=1;rounded=0;" parent="jX2C6xq7MHJStbMYzHnA-59" source="jX2C6xq7MHJStbMYzHnA-63" target="jX2C6xq7MHJStbMYzHnA-65" edge="1">
          <mxGeometry width="50" height="50" relative="1" as="geometry">
            <mxPoint x="166" y="150" as="sourcePoint" />
            <mxPoint x="64" y="260" as="targetPoint" />
          </mxGeometry>
        </mxCell>
        <mxCell id="jX2C6xq7MHJStbMYzHnA-104" value="" style="endArrow=classic;html=1;rounded=0;" parent="jX2C6xq7MHJStbMYzHnA-59" source="jX2C6xq7MHJStbMYzHnA-63" target="jX2C6xq7MHJStbMYzHnA-67" edge="1">
          <mxGeometry width="50" height="50" relative="1" as="geometry">
            <mxPoint x="194" y="140" as="sourcePoint" />
            <mxPoint x="66" y="260" as="targetPoint" />
          </mxGeometry>
        </mxCell>
        <mxCell id="jX2C6xq7MHJStbMYzHnA-85" value="" style="endArrow=classic;html=1;rounded=0;" parent="1" source="jX2C6xq7MHJStbMYzHnA-65" target="jX2C6xq7MHJStbMYzHnA-14" edge="1">
          <mxGeometry width="50" height="50" relative="1" as="geometry">
            <mxPoint x="540" y="560" as="sourcePoint" />
            <mxPoint x="590" y="510" as="targetPoint" />
          </mxGeometry>
        </mxCell>
        <mxCell id="jX2C6xq7MHJStbMYzHnA-88" value="" style="endArrow=classic;html=1;rounded=0;" parent="1" source="jX2C6xq7MHJStbMYzHnA-60" target="jX2C6xq7MHJStbMYzHnA-14" edge="1">
          <mxGeometry width="50" height="50" relative="1" as="geometry">
            <mxPoint x="874" y="670" as="sourcePoint" />
            <mxPoint x="743" y="550" as="targetPoint" />
          </mxGeometry>
        </mxCell>
        <mxCell id="jX2C6xq7MHJStbMYzHnA-89" value="" style="endArrow=classic;html=1;rounded=0;" parent="1" source="jX2C6xq7MHJStbMYzHnA-61" target="jX2C6xq7MHJStbMYzHnA-14" edge="1">
          <mxGeometry width="50" height="50" relative="1" as="geometry">
            <mxPoint x="860" y="511" as="sourcePoint" />
            <mxPoint x="750" y="514" as="targetPoint" />
          </mxGeometry>
        </mxCell>
        <mxCell id="jX2C6xq7MHJStbMYzHnA-92" value="Algoritmizace - napsané programy" style="swimlane;whiteSpace=wrap;html=1;" parent="1" vertex="1">
          <mxGeometry x="810" y="-360" width="710" height="590" as="geometry" />
        </mxCell>
        <mxCell id="OEbDG3I4mA1YqLGFAOzE-119" value="Ke všem algoritmům zakreslený VD a všechny zapsané jako funkce se vstupem (argumenty) a výsledkem (return)" style="text;html=1;strokeColor=none;fillColor=none;align=center;verticalAlign=middle;whiteSpace=wrap;rounded=0;" parent="jX2C6xq7MHJStbMYzHnA-92" vertex="1">
          <mxGeometry x="17" y="30" width="673" height="30" as="geometry" />
        </mxCell>
        <mxCell id="OEbDG3I4mA1YqLGFAOzE-128" value="Přímočaré algoritmy" style="swimlane;whiteSpace=wrap;html=1;fillColor=#d5e8d4;strokeColor=#82b366;" parent="jX2C6xq7MHJStbMYzHnA-92" vertex="1">
          <mxGeometry x="17" y="60" width="183" height="250" as="geometry" />
        </mxCell>
        <mxCell id="OEbDG3I4mA1YqLGFAOzE-69" value="Prohození hodnot dvou proměnných" style="rounded=1;whiteSpace=wrap;html=1;fillColor=#d5e8d4;strokeColor=#82b366;" parent="OEbDG3I4mA1YqLGFAOzE-128" vertex="1">
          <mxGeometry x="13" y="34.379999999999995" width="140" height="35" as="geometry" />
        </mxCell>
        <mxCell id="OEbDG3I4mA1YqLGFAOzE-70" value="Minimum/maximum ze tří proměnných" style="rounded=1;whiteSpace=wrap;html=1;fillColor=#d5e8d4;strokeColor=#82b366;" parent="OEbDG3I4mA1YqLGFAOzE-128" vertex="1">
          <mxGeometry x="13" y="84.38" width="140" height="35" as="geometry" />
        </mxCell>
        <mxCell id="OEbDG3I4mA1YqLGFAOzE-64" value="Řešení lineární rovnice v obecném tvaru" style="rounded=1;whiteSpace=wrap;html=1;fillColor=#d5e8d4;strokeColor=#82b366;" parent="OEbDG3I4mA1YqLGFAOzE-128" vertex="1">
          <mxGeometry x="13" y="136.88" width="140" height="35" as="geometry" />
        </mxCell>
        <mxCell id="OEbDG3I4mA1YqLGFAOzE-65" value="Řešení kvadratické rovnice v obecném tvaru" style="rounded=1;whiteSpace=wrap;html=1;fillColor=#d5e8d4;strokeColor=#82b366;" parent="OEbDG3I4mA1YqLGFAOzE-128" vertex="1">
          <mxGeometry x="13" y="190.63" width="140" height="35" as="geometry" />
        </mxCell>
        <mxCell id="OEbDG3I4mA1YqLGFAOzE-131" value="Pouze cyklické algoritmy" style="swimlane;whiteSpace=wrap;html=1;" parent="jX2C6xq7MHJStbMYzHnA-92" vertex="1">
          <mxGeometry x="17" y="336.25" width="313" height="233.75" as="geometry" />
        </mxCell>
        <mxCell id="OEbDG3I4mA1YqLGFAOzE-72" value="Faktoriál iterativně" style="rounded=1;whiteSpace=wrap;html=1;" parent="OEbDG3I4mA1YqLGFAOzE-131" vertex="1">
          <mxGeometry x="19" y="58.75" width="120" height="30" as="geometry" />
        </mxCell>
        <mxCell id="OEbDG3I4mA1YqLGFAOzE-78" value="Fibbonaciho posloupnost iterativně" style="rounded=1;whiteSpace=wrap;html=1;" parent="OEbDG3I4mA1YqLGFAOzE-131" vertex="1">
          <mxGeometry x="19" y="100" width="90" height="60" as="geometry" />
        </mxCell>
        <mxCell id="OEbDG3I4mA1YqLGFAOzE-67" value="Hornerovo schema" style="rounded=1;whiteSpace=wrap;html=1;" parent="OEbDG3I4mA1YqLGFAOzE-131" vertex="1">
          <mxGeometry x="163" y="115" width="120" height="30" as="geometry" />
        </mxCell>
        <mxCell id="OEbDG3I4mA1YqLGFAOzE-90" value="Převod z libovolné číselné soustavy do desítkové a zpět" style="rounded=1;whiteSpace=wrap;html=1;" parent="OEbDG3I4mA1YqLGFAOzE-131" vertex="1">
          <mxGeometry x="53" y="173.75" width="175" height="40" as="geometry" />
        </mxCell>
        <mxCell id="OEbDG3I4mA1YqLGFAOzE-132" value="Algoritmy s cyklem i podmínkou" style="swimlane;whiteSpace=wrap;html=1;" parent="jX2C6xq7MHJStbMYzHnA-92" vertex="1">
          <mxGeometry x="340" y="80" width="350" height="260" as="geometry" />
        </mxCell>
        <mxCell id="OEbDG3I4mA1YqLGFAOzE-71" value="&lt;div&gt;Minimum/maximum v poli&lt;/div&gt;" style="rounded=1;whiteSpace=wrap;html=1;fillColor=#d5e8d4;strokeColor=#82b366;" parent="OEbDG3I4mA1YqLGFAOzE-132" vertex="1">
          <mxGeometry x="10" y="42.5" width="119" height="40" as="geometry" />
        </mxCell>
        <mxCell id="OEbDG3I4mA1YqLGFAOzE-68" value="Eratosthenovo síto" style="rounded=1;whiteSpace=wrap;html=1;fillColor=#d5e8d4;strokeColor=#82b366;" parent="OEbDG3I4mA1YqLGFAOzE-132" vertex="1">
          <mxGeometry x="9" y="90" width="120" height="30" as="geometry" />
        </mxCell>
        <mxCell id="OEbDG3I4mA1YqLGFAOzE-66" value="Euklidův algoritmus" style="rounded=1;whiteSpace=wrap;html=1;fillColor=#d5e8d4;strokeColor=#82b366;" parent="OEbDG3I4mA1YqLGFAOzE-132" vertex="1">
          <mxGeometry x="10" y="130" width="120" height="30" as="geometry" />
        </mxCell>
        <mxCell id="OEbDG3I4mA1YqLGFAOzE-83" value="Fronta" style="rounded=1;whiteSpace=wrap;html=1;" parent="OEbDG3I4mA1YqLGFAOzE-132" vertex="1">
          <mxGeometry x="10" y="205" width="55" height="30" as="geometry" />
        </mxCell>
        <mxCell id="OEbDG3I4mA1YqLGFAOzE-84" value="Zásobník" style="rounded=1;whiteSpace=wrap;html=1;" parent="OEbDG3I4mA1YqLGFAOzE-132" vertex="1">
          <mxGeometry x="70" y="205" width="70" height="30" as="geometry" />
        </mxCell>
        <mxCell id="OEbDG3I4mA1YqLGFAOzE-135" value="Algoritmy s rekurzí" style="swimlane;whiteSpace=wrap;html=1;" parent="jX2C6xq7MHJStbMYzHnA-92" vertex="1">
          <mxGeometry x="340" y="360" width="330" height="200" as="geometry" />
        </mxCell>
        <mxCell id="OEbDG3I4mA1YqLGFAOzE-81" value="Quick sort" style="rounded=1;whiteSpace=wrap;html=1;" parent="OEbDG3I4mA1YqLGFAOzE-135" vertex="1">
          <mxGeometry x="16.5" y="40" width="85" height="30" as="geometry" />
        </mxCell>
        <mxCell id="OEbDG3I4mA1YqLGFAOzE-82" value="Merge sort" style="rounded=1;whiteSpace=wrap;html=1;" parent="OEbDG3I4mA1YqLGFAOzE-135" vertex="1">
          <mxGeometry x="17.5" y="85" width="85" height="30" as="geometry" />
        </mxCell>
        <mxCell id="OEbDG3I4mA1YqLGFAOzE-79" value="Vyhledávání metodou půlení intervalu" style="rounded=1;whiteSpace=wrap;html=1;" parent="OEbDG3I4mA1YqLGFAOzE-135" vertex="1">
          <mxGeometry x="131" y="30" width="130" height="40" as="geometry" />
        </mxCell>
        <mxCell id="OEbDG3I4mA1YqLGFAOzE-114" value="" style="endArrow=classic;html=1;rounded=0;" parent="OEbDG3I4mA1YqLGFAOzE-135" source="OEbDG3I4mA1YqLGFAOzE-79" target="OEbDG3I4mA1YqLGFAOzE-82" edge="1">
          <mxGeometry width="50" height="50" relative="1" as="geometry">
            <mxPoint x="692" y="-42" as="sourcePoint" />
            <mxPoint x="130" y="-16" as="targetPoint" />
          </mxGeometry>
        </mxCell>
        <mxCell id="OEbDG3I4mA1YqLGFAOzE-73" value="Faktoriál rekurzivně" style="rounded=1;whiteSpace=wrap;html=1;" parent="OEbDG3I4mA1YqLGFAOzE-135" vertex="1">
          <mxGeometry x="131" y="85" width="120" height="30" as="geometry" />
        </mxCell>
        <mxCell id="OEbDG3I4mA1YqLGFAOzE-76" value="Fibbonaciho posloupnost rekurzivně" style="rounded=1;whiteSpace=wrap;html=1;" parent="OEbDG3I4mA1YqLGFAOzE-135" vertex="1">
          <mxGeometry x="131" y="130" width="120" height="53.75" as="geometry" />
        </mxCell>
        <mxCell id="jX2C6xq7MHJStbMYzHnA-93" value="Dynamické webové stránky" style="swimlane;whiteSpace=wrap;html=1;" parent="1" vertex="1">
          <mxGeometry x="-210" y="-100" width="640" height="510" as="geometry" />
        </mxCell>
        <mxCell id="jX2C6xq7MHJStbMYzHnA-95" value="Zpracování dat z formuláře" style="rounded=1;whiteSpace=wrap;html=1;" parent="jX2C6xq7MHJStbMYzHnA-93" vertex="1">
          <mxGeometry x="320" y="130" width="105" height="40" as="geometry" />
        </mxCell>
        <mxCell id="jX2C6xq7MHJStbMYzHnA-94" value="Přihlášení uživatele" style="rounded=1;whiteSpace=wrap;html=1;" parent="jX2C6xq7MHJStbMYzHnA-93" vertex="1">
          <mxGeometry x="150" y="135" width="120" height="30" as="geometry" />
        </mxCell>
        <mxCell id="jX2C6xq7MHJStbMYzHnA-96" value="" style="endArrow=classic;html=1;rounded=0;" parent="jX2C6xq7MHJStbMYzHnA-93" source="jX2C6xq7MHJStbMYzHnA-95" target="jX2C6xq7MHJStbMYzHnA-94" edge="1">
          <mxGeometry width="50" height="50" relative="1" as="geometry">
            <mxPoint x="210" y="335" as="sourcePoint" />
            <mxPoint x="260" y="285" as="targetPoint" />
          </mxGeometry>
        </mxCell>
        <mxCell id="jX2C6xq7MHJStbMYzHnA-97" value="Kontrola/zabezpečení vstupu od uživatele" style="rounded=1;whiteSpace=wrap;html=1;" parent="jX2C6xq7MHJStbMYzHnA-93" vertex="1">
          <mxGeometry x="460" y="125" width="130" height="40" as="geometry" />
        </mxCell>
        <mxCell id="jX2C6xq7MHJStbMYzHnA-98" value="" style="endArrow=classic;html=1;rounded=0;dashed=1;" parent="jX2C6xq7MHJStbMYzHnA-93" source="jX2C6xq7MHJStbMYzHnA-97" target="jX2C6xq7MHJStbMYzHnA-95" edge="1">
          <mxGeometry width="50" height="50" relative="1" as="geometry">
            <mxPoint x="223.5" y="235" as="sourcePoint" />
            <mxPoint x="145.5" y="185" as="targetPoint" />
          </mxGeometry>
        </mxCell>
        <mxCell id="jX2C6xq7MHJStbMYzHnA-100" value="POST" style="rounded=1;whiteSpace=wrap;html=1;" parent="jX2C6xq7MHJStbMYzHnA-93" vertex="1">
          <mxGeometry x="435" y="212.5" width="51" height="30" as="geometry" />
        </mxCell>
        <mxCell id="jX2C6xq7MHJStbMYzHnA-102" value="" style="endArrow=classic;html=1;rounded=0;" parent="jX2C6xq7MHJStbMYzHnA-93" source="jX2C6xq7MHJStbMYzHnA-100" target="jX2C6xq7MHJStbMYzHnA-95" edge="1">
          <mxGeometry width="50" height="50" relative="1" as="geometry">
            <mxPoint x="370" y="251" as="sourcePoint" />
            <mxPoint x="308" y="253" as="targetPoint" />
          </mxGeometry>
        </mxCell>
        <mxCell id="jX2C6xq7MHJStbMYzHnA-99" value="GET" style="rounded=1;whiteSpace=wrap;html=1;" parent="jX2C6xq7MHJStbMYzHnA-93" vertex="1">
          <mxGeometry x="444" y="170" width="51" height="30" as="geometry" />
        </mxCell>
        <mxCell id="jX2C6xq7MHJStbMYzHnA-101" value="" style="endArrow=classic;html=1;rounded=0;" parent="jX2C6xq7MHJStbMYzHnA-93" source="jX2C6xq7MHJStbMYzHnA-99" target="jX2C6xq7MHJStbMYzHnA-95" edge="1">
          <mxGeometry width="50" height="50" relative="1" as="geometry">
            <mxPoint x="285" y="325" as="sourcePoint" />
            <mxPoint x="285" y="275" as="targetPoint" />
          </mxGeometry>
        </mxCell>
        <mxCell id="jX2C6xq7MHJStbMYzHnA-105" value="Session" style="rounded=1;whiteSpace=wrap;html=1;" parent="jX2C6xq7MHJStbMYzHnA-93" vertex="1">
          <mxGeometry x="175" y="185" width="70" height="30" as="geometry" />
        </mxCell>
        <mxCell id="jX2C6xq7MHJStbMYzHnA-117" value="Cookies" style="rounded=1;whiteSpace=wrap;html=1;" parent="jX2C6xq7MHJStbMYzHnA-93" vertex="1">
          <mxGeometry x="175" y="225" width="70" height="30" as="geometry" />
        </mxCell>
        <mxCell id="jX2C6xq7MHJStbMYzHnA-118" value="" style="endArrow=classic;html=1;rounded=0;" parent="jX2C6xq7MHJStbMYzHnA-93" source="jX2C6xq7MHJStbMYzHnA-105" target="jX2C6xq7MHJStbMYzHnA-94" edge="1">
          <mxGeometry width="50" height="50" relative="1" as="geometry">
            <mxPoint x="330" y="160" as="sourcePoint" />
            <mxPoint x="280" y="160" as="targetPoint" />
          </mxGeometry>
        </mxCell>
        <mxCell id="jX2C6xq7MHJStbMYzHnA-120" value="Uložení uživatelského nastavení" style="rounded=1;whiteSpace=wrap;html=1;" parent="jX2C6xq7MHJStbMYzHnA-93" vertex="1">
          <mxGeometry x="155" y="275" width="110" height="60" as="geometry" />
        </mxCell>
        <mxCell id="jX2C6xq7MHJStbMYzHnA-121" value="" style="endArrow=classic;html=1;rounded=0;" parent="jX2C6xq7MHJStbMYzHnA-93" source="jX2C6xq7MHJStbMYzHnA-95" target="jX2C6xq7MHJStbMYzHnA-120" edge="1">
          <mxGeometry width="50" height="50" relative="1" as="geometry">
            <mxPoint x="330" y="160" as="sourcePoint" />
            <mxPoint x="280" y="160" as="targetPoint" />
          </mxGeometry>
        </mxCell>
        <mxCell id="jX2C6xq7MHJStbMYzHnA-122" value="" style="endArrow=classic;html=1;rounded=0;" parent="jX2C6xq7MHJStbMYzHnA-93" source="jX2C6xq7MHJStbMYzHnA-117" target="jX2C6xq7MHJStbMYzHnA-120" edge="1">
          <mxGeometry width="50" height="50" relative="1" as="geometry">
            <mxPoint x="220" y="195" as="sourcePoint" />
            <mxPoint x="220" y="175" as="targetPoint" />
          </mxGeometry>
        </mxCell>
        <mxCell id="jX2C6xq7MHJStbMYzHnA-123" value="Různý obsah pro ne/přihlášeného uživatele" style="rounded=1;whiteSpace=wrap;html=1;" parent="jX2C6xq7MHJStbMYzHnA-93" vertex="1">
          <mxGeometry x="20" y="125" width="110" height="60" as="geometry" />
        </mxCell>
        <mxCell id="jX2C6xq7MHJStbMYzHnA-142" value="Zobrazení výsledku výpočtu" style="rounded=1;whiteSpace=wrap;html=1;" parent="jX2C6xq7MHJStbMYzHnA-93" vertex="1">
          <mxGeometry x="330" y="57.5" width="80" height="55" as="geometry" />
        </mxCell>
        <mxCell id="jX2C6xq7MHJStbMYzHnA-143" value="Změna struktury stránky dle uživatelského vstupu&lt;br&gt;(např. rozměry tabulky, počet div)" style="rounded=1;whiteSpace=wrap;html=1;" parent="jX2C6xq7MHJStbMYzHnA-93" vertex="1">
          <mxGeometry x="80" y="40" width="185" height="72.5" as="geometry" />
        </mxCell>
        <mxCell id="jX2C6xq7MHJStbMYzHnA-145" value="Propojení s databází" style="rounded=1;whiteSpace=wrap;html=1;" parent="jX2C6xq7MHJStbMYzHnA-93" vertex="1">
          <mxGeometry x="480" y="430" width="130" height="27.5" as="geometry" />
        </mxCell>
        <mxCell id="jX2C6xq7MHJStbMYzHnA-146" value="Čtení/Zobrazení dat" style="rounded=1;whiteSpace=wrap;html=1;" parent="jX2C6xq7MHJStbMYzHnA-93" vertex="1">
          <mxGeometry x="480" y="335" width="130" height="27.5" as="geometry" />
        </mxCell>
        <mxCell id="jX2C6xq7MHJStbMYzHnA-148" value="Zobrazení filtrovaných dat" style="rounded=1;whiteSpace=wrap;html=1;" parent="jX2C6xq7MHJStbMYzHnA-93" vertex="1">
          <mxGeometry x="480" y="380" width="130" height="35" as="geometry" />
        </mxCell>
        <mxCell id="jX2C6xq7MHJStbMYzHnA-147" value="Mazání dat" style="rounded=1;whiteSpace=wrap;html=1;" parent="jX2C6xq7MHJStbMYzHnA-93" vertex="1">
          <mxGeometry x="330" y="387.5" width="130" height="27.5" as="geometry" />
        </mxCell>
        <mxCell id="jX2C6xq7MHJStbMYzHnA-149" value="Zápis dat" style="rounded=1;whiteSpace=wrap;html=1;" parent="jX2C6xq7MHJStbMYzHnA-93" vertex="1">
          <mxGeometry x="330" y="430" width="130" height="27.5" as="geometry" />
        </mxCell>
        <mxCell id="jX2C6xq7MHJStbMYzHnA-151" value="" style="endArrow=classic;html=1;rounded=0;" parent="jX2C6xq7MHJStbMYzHnA-93" source="jX2C6xq7MHJStbMYzHnA-146" target="jX2C6xq7MHJStbMYzHnA-148" edge="1">
          <mxGeometry width="50" height="50" relative="1" as="geometry">
            <mxPoint x="362" y="180" as="sourcePoint" />
            <mxPoint x="251" y="285" as="targetPoint" />
          </mxGeometry>
        </mxCell>
        <mxCell id="jX2C6xq7MHJStbMYzHnA-152" value="" style="endArrow=classic;html=1;rounded=0;" parent="jX2C6xq7MHJStbMYzHnA-93" source="jX2C6xq7MHJStbMYzHnA-148" target="jX2C6xq7MHJStbMYzHnA-145" edge="1">
          <mxGeometry width="50" height="50" relative="1" as="geometry">
            <mxPoint x="555" y="358" as="sourcePoint" />
            <mxPoint x="555" y="380" as="targetPoint" />
          </mxGeometry>
        </mxCell>
        <mxCell id="jX2C6xq7MHJStbMYzHnA-153" value="" style="endArrow=classic;html=1;rounded=0;" parent="jX2C6xq7MHJStbMYzHnA-93" source="jX2C6xq7MHJStbMYzHnA-149" target="jX2C6xq7MHJStbMYzHnA-145" edge="1">
          <mxGeometry width="50" height="50" relative="1" as="geometry">
            <mxPoint x="555" y="415" as="sourcePoint" />
            <mxPoint x="555" y="440" as="targetPoint" />
          </mxGeometry>
        </mxCell>
        <mxCell id="jX2C6xq7MHJStbMYzHnA-154" value="" style="endArrow=classic;html=1;rounded=0;" parent="jX2C6xq7MHJStbMYzHnA-93" source="jX2C6xq7MHJStbMYzHnA-147" target="jX2C6xq7MHJStbMYzHnA-145" edge="1">
          <mxGeometry width="50" height="50" relative="1" as="geometry">
            <mxPoint x="460" y="454" as="sourcePoint" />
            <mxPoint x="490" y="454" as="targetPoint" />
          </mxGeometry>
        </mxCell>
        <mxCell id="jX2C6xq7MHJStbMYzHnA-157" value="" style="endArrow=classic;html=1;rounded=0;" parent="jX2C6xq7MHJStbMYzHnA-93" source="jX2C6xq7MHJStbMYzHnA-95" target="jX2C6xq7MHJStbMYzHnA-145" edge="1">
          <mxGeometry width="50" height="50" relative="1" as="geometry">
            <mxPoint x="362" y="180" as="sourcePoint" />
            <mxPoint x="251" y="285" as="targetPoint" />
          </mxGeometry>
        </mxCell>
        <mxCell id="jX2C6xq7MHJStbMYzHnA-158" value="" style="endArrow=classic;html=1;rounded=0;" parent="jX2C6xq7MHJStbMYzHnA-93" source="jX2C6xq7MHJStbMYzHnA-95" target="jX2C6xq7MHJStbMYzHnA-142" edge="1">
          <mxGeometry width="50" height="50" relative="1" as="geometry">
            <mxPoint x="362" y="180" as="sourcePoint" />
            <mxPoint x="251" y="285" as="targetPoint" />
          </mxGeometry>
        </mxCell>
        <mxCell id="jX2C6xq7MHJStbMYzHnA-159" value="" style="endArrow=classic;html=1;rounded=0;" parent="jX2C6xq7MHJStbMYzHnA-93" source="jX2C6xq7MHJStbMYzHnA-95" target="jX2C6xq7MHJStbMYzHnA-143" edge="1">
          <mxGeometry width="50" height="50" relative="1" as="geometry">
            <mxPoint x="382" y="140" as="sourcePoint" />
            <mxPoint x="381" y="114" as="targetPoint" />
          </mxGeometry>
        </mxCell>
        <mxCell id="jX2C6xq7MHJStbMYzHnA-160" value="" style="endArrow=classic;html=1;rounded=0;" parent="jX2C6xq7MHJStbMYzHnA-93" source="jX2C6xq7MHJStbMYzHnA-94" target="jX2C6xq7MHJStbMYzHnA-123" edge="1">
          <mxGeometry width="50" height="50" relative="1" as="geometry">
            <mxPoint x="338" y="140" as="sourcePoint" />
            <mxPoint x="275" y="111" as="targetPoint" />
          </mxGeometry>
        </mxCell>
        <mxCell id="jX2C6xq7MHJStbMYzHnA-161" value="Autentizace přes databázi" style="rounded=1;whiteSpace=wrap;html=1;" parent="jX2C6xq7MHJStbMYzHnA-93" vertex="1">
          <mxGeometry x="315" y="270" width="110" height="40" as="geometry" />
        </mxCell>
        <mxCell id="jX2C6xq7MHJStbMYzHnA-162" value="" style="endArrow=classic;html=1;rounded=0;" parent="jX2C6xq7MHJStbMYzHnA-93" source="jX2C6xq7MHJStbMYzHnA-145" target="jX2C6xq7MHJStbMYzHnA-161" edge="1">
          <mxGeometry width="50" height="50" relative="1" as="geometry">
            <mxPoint x="454" y="425" as="sourcePoint" />
            <mxPoint x="506" y="440" as="targetPoint" />
          </mxGeometry>
        </mxCell>
        <mxCell id="jX2C6xq7MHJStbMYzHnA-163" value="" style="endArrow=classic;html=1;rounded=0;" parent="jX2C6xq7MHJStbMYzHnA-93" source="jX2C6xq7MHJStbMYzHnA-94" target="jX2C6xq7MHJStbMYzHnA-161" edge="1">
          <mxGeometry width="50" height="50" relative="1" as="geometry">
            <mxPoint x="539" y="440" as="sourcePoint" />
            <mxPoint x="403" y="320" as="targetPoint" />
          </mxGeometry>
        </mxCell>
        <mxCell id="jX2C6xq7MHJStbMYzHnA-144" value="Algoritmizace - teorie a VD" style="swimlane;whiteSpace=wrap;html=1;fillColor=#d5e8d4;strokeColor=#82b366;" parent="1" vertex="1">
          <mxGeometry x="700" y="-670" width="440" height="270" as="geometry" />
        </mxCell>
        <mxCell id="cuUNJkLqR6fL_RDQFLcp-101" value="Vývojový diagram" style="swimlane;whiteSpace=wrap;html=1;fillColor=#d5e8d4;strokeColor=#82b366;" parent="jX2C6xq7MHJStbMYzHnA-144" vertex="1">
          <mxGeometry x="20" y="45" width="200" height="200" as="geometry" />
        </mxCell>
        <mxCell id="cuUNJkLqR6fL_RDQFLcp-104" value="Záčátek&lt;br&gt;vstup" style="rounded=1;whiteSpace=wrap;html=1;fillColor=#d5e8d4;strokeColor=#82b366;" parent="cuUNJkLqR6fL_RDQFLcp-101" vertex="1">
          <mxGeometry x="15" y="37.5" width="65" height="42.5" as="geometry" />
        </mxCell>
        <mxCell id="cuUNJkLqR6fL_RDQFLcp-105" value="Konec&lt;br&gt;výstup/výsledek" style="rounded=1;whiteSpace=wrap;html=1;fillColor=#d5e8d4;strokeColor=#82b366;" parent="cuUNJkLqR6fL_RDQFLcp-101" vertex="1">
          <mxGeometry x="95" y="37.5" width="95" height="42.5" as="geometry" />
        </mxCell>
        <mxCell id="cuUNJkLqR6fL_RDQFLcp-106" value="Krok" style="rounded=1;whiteSpace=wrap;html=1;fillColor=#d5e8d4;strokeColor=#82b366;" parent="cuUNJkLqR6fL_RDQFLcp-101" vertex="1">
          <mxGeometry x="15" y="95" width="45" height="25" as="geometry" />
        </mxCell>
        <mxCell id="cuUNJkLqR6fL_RDQFLcp-107" value="Větvení" style="rounded=1;whiteSpace=wrap;html=1;fillColor=#d5e8d4;strokeColor=#82b366;" parent="cuUNJkLqR6fL_RDQFLcp-101" vertex="1">
          <mxGeometry x="75" y="95" width="50" height="25" as="geometry" />
        </mxCell>
        <mxCell id="cuUNJkLqR6fL_RDQFLcp-108" value="Opakování" style="rounded=1;whiteSpace=wrap;html=1;fillColor=#d5e8d4;strokeColor=#82b366;" parent="cuUNJkLqR6fL_RDQFLcp-101" vertex="1">
          <mxGeometry x="12.5" y="135" width="67.5" height="25" as="geometry" />
        </mxCell>
        <mxCell id="cuUNJkLqR6fL_RDQFLcp-102" value="Teorie algoritmů" style="swimlane;whiteSpace=wrap;html=1;fillColor=#d5e8d4;strokeColor=#82b366;" parent="jX2C6xq7MHJStbMYzHnA-144" vertex="1">
          <mxGeometry x="227.5" y="45" width="200" height="200" as="geometry" />
        </mxCell>
        <mxCell id="cuUNJkLqR6fL_RDQFLcp-109" value="Konečnost" style="rounded=1;whiteSpace=wrap;html=1;fillColor=#d5e8d4;strokeColor=#82b366;" parent="cuUNJkLqR6fL_RDQFLcp-102" vertex="1">
          <mxGeometry x="7.5" y="33.75" width="72.5" height="26.25" as="geometry" />
        </mxCell>
        <mxCell id="cuUNJkLqR6fL_RDQFLcp-110" value="Správnost" style="rounded=1;whiteSpace=wrap;html=1;fillColor=#d5e8d4;strokeColor=#82b366;" parent="cuUNJkLqR6fL_RDQFLcp-102" vertex="1">
          <mxGeometry x="92.5" y="33.75" width="72.5" height="26.25" as="geometry" />
        </mxCell>
        <mxCell id="cuUNJkLqR6fL_RDQFLcp-111" value="Obecnost" style="rounded=1;whiteSpace=wrap;html=1;fillColor=#d5e8d4;strokeColor=#82b366;" parent="cuUNJkLqR6fL_RDQFLcp-102" vertex="1">
          <mxGeometry x="7.5" y="75" width="72.5" height="26.25" as="geometry" />
        </mxCell>
        <mxCell id="cuUNJkLqR6fL_RDQFLcp-112" value="Elementárnost" style="rounded=1;whiteSpace=wrap;html=1;fillColor=#d5e8d4;strokeColor=#82b366;" parent="cuUNJkLqR6fL_RDQFLcp-102" vertex="1">
          <mxGeometry x="92.5" y="75" width="87.5" height="26.25" as="geometry" />
        </mxCell>
        <mxCell id="cuUNJkLqR6fL_RDQFLcp-113" value="Jednoznačnost" style="rounded=1;whiteSpace=wrap;html=1;fillColor=#d5e8d4;strokeColor=#82b366;" parent="cuUNJkLqR6fL_RDQFLcp-102" vertex="1">
          <mxGeometry x="10" y="155" width="87.5" height="26.25" as="geometry" />
        </mxCell>
        <mxCell id="cuUNJkLqR6fL_RDQFLcp-114" value="Determinovanost" style="rounded=1;whiteSpace=wrap;html=1;fillColor=#d5e8d4;strokeColor=#82b366;" parent="cuUNJkLqR6fL_RDQFLcp-102" vertex="1">
          <mxGeometry x="10" y="115" width="102.5" height="26.25" as="geometry" />
        </mxCell>
        <mxCell id="jX2C6xq7MHJStbMYzHnA-155" value="" style="endArrow=classic;html=1;rounded=0;" parent="1" source="jX2C6xq7MHJStbMYzHnA-11" target="jX2C6xq7MHJStbMYzHnA-145" edge="1">
          <mxGeometry width="50" height="50" relative="1" as="geometry">
            <mxPoint x="640" y="450" as="sourcePoint" />
            <mxPoint x="635" y="400" as="targetPoint" />
          </mxGeometry>
        </mxCell>
        <mxCell id="jX2C6xq7MHJStbMYzHnA-255" value="Řídící struktury" style="swimlane;whiteSpace=wrap;html=1;startSize=20;fillColor=#d5e8d4;strokeColor=#82b366;" parent="1" vertex="1">
          <mxGeometry x="-90" y="-660" width="370" height="520" as="geometry" />
        </mxCell>
        <mxCell id="jX2C6xq7MHJStbMYzHnA-124" value="Větvení" style="rounded=1;whiteSpace=wrap;html=1;fillColor=#d5e8d4;strokeColor=#82b366;" parent="jX2C6xq7MHJStbMYzHnA-255" vertex="1">
          <mxGeometry x="257.75" y="222.5" width="60" height="30" as="geometry" />
        </mxCell>
        <mxCell id="jX2C6xq7MHJStbMYzHnA-131" value="while" style="rounded=1;whiteSpace=wrap;html=1;fillColor=#d5e8d4;strokeColor=#82b366;" parent="jX2C6xq7MHJStbMYzHnA-255" vertex="1">
          <mxGeometry x="122.75" y="346.25" width="40" height="25" as="geometry" />
        </mxCell>
        <mxCell id="jX2C6xq7MHJStbMYzHnA-134" value="foreach" style="rounded=1;whiteSpace=wrap;html=1;fillColor=#d5e8d4;strokeColor=#82b366;" parent="jX2C6xq7MHJStbMYzHnA-255" vertex="1">
          <mxGeometry x="102.75" y="412.5" width="60" height="30" as="geometry" />
        </mxCell>
        <mxCell id="jX2C6xq7MHJStbMYzHnA-132" value="for" style="rounded=1;whiteSpace=wrap;html=1;fillColor=#d5e8d4;strokeColor=#82b366;" parent="jX2C6xq7MHJStbMYzHnA-255" vertex="1">
          <mxGeometry x="116.75" y="377.5" width="45" height="25" as="geometry" />
        </mxCell>
        <mxCell id="jX2C6xq7MHJStbMYzHnA-135" value="Cykly" style="rounded=1;whiteSpace=wrap;html=1;fillColor=#d5e8d4;strokeColor=#82b366;" parent="jX2C6xq7MHJStbMYzHnA-255" vertex="1">
          <mxGeometry x="243.25" y="363.75" width="55" height="27.5" as="geometry" />
        </mxCell>
        <mxCell id="jX2C6xq7MHJStbMYzHnA-172" value="if-else" style="rounded=1;whiteSpace=wrap;html=1;fillColor=#d5e8d4;strokeColor=#82b366;" parent="jX2C6xq7MHJStbMYzHnA-255" vertex="1">
          <mxGeometry x="117.25" y="222.5" width="50" height="30" as="geometry" />
        </mxCell>
        <mxCell id="jX2C6xq7MHJStbMYzHnA-174" value="switch" style="rounded=1;whiteSpace=wrap;html=1;" parent="jX2C6xq7MHJStbMYzHnA-255" vertex="1">
          <mxGeometry x="117.25" y="261.25" width="50" height="30" as="geometry" />
        </mxCell>
        <mxCell id="jX2C6xq7MHJStbMYzHnA-175" value="" style="endArrow=classic;html=1;rounded=0;" parent="jX2C6xq7MHJStbMYzHnA-255" source="jX2C6xq7MHJStbMYzHnA-172" target="jX2C6xq7MHJStbMYzHnA-124" edge="1">
          <mxGeometry width="50" height="50" relative="1" as="geometry">
            <mxPoint x="311.25" y="570.5" as="sourcePoint" />
            <mxPoint x="427.25" y="594.5" as="targetPoint" />
          </mxGeometry>
        </mxCell>
        <mxCell id="jX2C6xq7MHJStbMYzHnA-176" value="" style="endArrow=classic;html=1;rounded=0;" parent="jX2C6xq7MHJStbMYzHnA-255" source="jX2C6xq7MHJStbMYzHnA-174" target="jX2C6xq7MHJStbMYzHnA-124" edge="1">
          <mxGeometry width="50" height="50" relative="1" as="geometry">
            <mxPoint x="177.25" y="247.5" as="sourcePoint" />
            <mxPoint x="237.25" y="247.5" as="targetPoint" />
          </mxGeometry>
        </mxCell>
        <mxCell id="jX2C6xq7MHJStbMYzHnA-177" value="" style="endArrow=classic;html=1;rounded=0;" parent="jX2C6xq7MHJStbMYzHnA-255" source="jX2C6xq7MHJStbMYzHnA-131" target="jX2C6xq7MHJStbMYzHnA-135" edge="1">
          <mxGeometry width="50" height="50" relative="1" as="geometry">
            <mxPoint x="183.75" y="303.75" as="sourcePoint" />
            <mxPoint x="243.75" y="283.75" as="targetPoint" />
          </mxGeometry>
        </mxCell>
        <mxCell id="jX2C6xq7MHJStbMYzHnA-178" value="" style="endArrow=classic;html=1;rounded=0;" parent="jX2C6xq7MHJStbMYzHnA-255" source="jX2C6xq7MHJStbMYzHnA-132" target="jX2C6xq7MHJStbMYzHnA-135" edge="1">
          <mxGeometry width="50" height="50" relative="1" as="geometry">
            <mxPoint x="213.75" y="408.75" as="sourcePoint" />
            <mxPoint x="252.75" y="379.75" as="targetPoint" />
          </mxGeometry>
        </mxCell>
        <mxCell id="jX2C6xq7MHJStbMYzHnA-179" value="" style="endArrow=classic;html=1;rounded=0;" parent="jX2C6xq7MHJStbMYzHnA-255" source="jX2C6xq7MHJStbMYzHnA-134" target="jX2C6xq7MHJStbMYzHnA-135" edge="1">
          <mxGeometry width="50" height="50" relative="1" as="geometry">
            <mxPoint x="173.75" y="405.187007874016" as="sourcePoint" />
            <mxPoint x="252.75" y="386.75" as="targetPoint" />
          </mxGeometry>
        </mxCell>
        <mxCell id="jX2C6xq7MHJStbMYzHnA-245" value="break" style="rounded=1;whiteSpace=wrap;html=1;fillColor=#d5e8d4;strokeColor=#82b366;" parent="jX2C6xq7MHJStbMYzHnA-255" vertex="1">
          <mxGeometry x="154.75" y="312.5" width="40" height="25" as="geometry" />
        </mxCell>
        <mxCell id="jX2C6xq7MHJStbMYzHnA-246" value="continue" style="rounded=1;whiteSpace=wrap;html=1;fillColor=#d5e8d4;strokeColor=#82b366;" parent="jX2C6xq7MHJStbMYzHnA-255" vertex="1">
          <mxGeometry x="204.75" y="302.5" width="62.5" height="30" as="geometry" />
        </mxCell>
        <mxCell id="jX2C6xq7MHJStbMYzHnA-249" value="" style="endArrow=classic;html=1;rounded=0;" parent="jX2C6xq7MHJStbMYzHnA-255" source="jX2C6xq7MHJStbMYzHnA-245" target="jX2C6xq7MHJStbMYzHnA-174" edge="1">
          <mxGeometry width="50" height="50" relative="1" as="geometry">
            <mxPoint x="178.25" y="334.5" as="sourcePoint" />
            <mxPoint x="246.25" y="353.5" as="targetPoint" />
          </mxGeometry>
        </mxCell>
        <mxCell id="jX2C6xq7MHJStbMYzHnA-250" value="" style="endArrow=classic;html=1;rounded=0;" parent="jX2C6xq7MHJStbMYzHnA-255" source="jX2C6xq7MHJStbMYzHnA-245" target="jX2C6xq7MHJStbMYzHnA-135" edge="1">
          <mxGeometry width="50" height="50" relative="1" as="geometry">
            <mxPoint x="233.96739130434798" y="332.5" as="sourcePoint" />
            <mxPoint x="183.75" y="318.75" as="targetPoint" />
          </mxGeometry>
        </mxCell>
        <mxCell id="jX2C6xq7MHJStbMYzHnA-251" value="" style="endArrow=classic;html=1;rounded=0;" parent="jX2C6xq7MHJStbMYzHnA-255" source="jX2C6xq7MHJStbMYzHnA-246" target="jX2C6xq7MHJStbMYzHnA-135" edge="1">
          <mxGeometry width="50" height="50" relative="1" as="geometry">
            <mxPoint x="286.4302325581393" y="338.75" as="sourcePoint" />
            <mxPoint x="269.75" y="373.75" as="targetPoint" />
          </mxGeometry>
        </mxCell>
        <mxCell id="jX2C6xq7MHJStbMYzHnA-130" value="Funkce" style="rounded=1;whiteSpace=wrap;html=1;fillColor=#d5e8d4;strokeColor=#82b366;" parent="jX2C6xq7MHJStbMYzHnA-255" vertex="1">
          <mxGeometry x="257.75" y="162.5" width="57" height="30" as="geometry" />
        </mxCell>
        <mxCell id="jX2C6xq7MHJStbMYzHnA-136" value="Argumenty" style="rounded=1;whiteSpace=wrap;html=1;fillColor=#d5e8d4;strokeColor=#82b366;" parent="jX2C6xq7MHJStbMYzHnA-255" vertex="1">
          <mxGeometry x="162.75" y="142.5" width="70" height="27.5" as="geometry" />
        </mxCell>
        <mxCell id="jX2C6xq7MHJStbMYzHnA-138" value="return" style="rounded=1;whiteSpace=wrap;html=1;fillColor=#d5e8d4;strokeColor=#82b366;" parent="jX2C6xq7MHJStbMYzHnA-255" vertex="1">
          <mxGeometry x="162.75" y="177.5" width="70" height="27.5" as="geometry" />
        </mxCell>
        <mxCell id="jX2C6xq7MHJStbMYzHnA-139" value="Předávání hodnotou" style="rounded=1;whiteSpace=wrap;html=1;fillColor=#d5e8d4;strokeColor=#82b366;" parent="jX2C6xq7MHJStbMYzHnA-255" vertex="1">
          <mxGeometry x="34.75" y="130" width="70" height="32.5" as="geometry" />
        </mxCell>
        <mxCell id="jX2C6xq7MHJStbMYzHnA-140" value="Předávání odkazem" style="rounded=1;whiteSpace=wrap;html=1;" parent="jX2C6xq7MHJStbMYzHnA-255" vertex="1">
          <mxGeometry x="34.75" y="177.5" width="70" height="32.5" as="geometry" />
        </mxCell>
        <mxCell id="jX2C6xq7MHJStbMYzHnA-164" value="" style="endArrow=classic;html=1;rounded=0;" parent="jX2C6xq7MHJStbMYzHnA-255" source="jX2C6xq7MHJStbMYzHnA-136" target="jX2C6xq7MHJStbMYzHnA-130" edge="1">
          <mxGeometry width="50" height="50" relative="1" as="geometry">
            <mxPoint x="578.75" y="70" as="sourcePoint" />
            <mxPoint x="515.75" y="41" as="targetPoint" />
          </mxGeometry>
        </mxCell>
        <mxCell id="jX2C6xq7MHJStbMYzHnA-165" value="" style="endArrow=classic;html=1;rounded=0;" parent="jX2C6xq7MHJStbMYzHnA-255" source="jX2C6xq7MHJStbMYzHnA-138" target="jX2C6xq7MHJStbMYzHnA-130" edge="1">
          <mxGeometry width="50" height="50" relative="1" as="geometry">
            <mxPoint x="215.75" y="166" as="sourcePoint" />
            <mxPoint x="260.75" y="166" as="targetPoint" />
          </mxGeometry>
        </mxCell>
        <mxCell id="jX2C6xq7MHJStbMYzHnA-166" value="" style="endArrow=classic;html=1;rounded=0;" parent="jX2C6xq7MHJStbMYzHnA-255" source="jX2C6xq7MHJStbMYzHnA-139" target="jX2C6xq7MHJStbMYzHnA-136" edge="1">
          <mxGeometry width="50" height="50" relative="1" as="geometry">
            <mxPoint x="242.75" y="190" as="sourcePoint" />
            <mxPoint x="287.75" y="175" as="targetPoint" />
          </mxGeometry>
        </mxCell>
        <mxCell id="jX2C6xq7MHJStbMYzHnA-167" value="" style="endArrow=classic;html=1;rounded=0;" parent="jX2C6xq7MHJStbMYzHnA-255" source="jX2C6xq7MHJStbMYzHnA-140" target="jX2C6xq7MHJStbMYzHnA-136" edge="1">
          <mxGeometry width="50" height="50" relative="1" as="geometry">
            <mxPoint x="41.75000000000023" y="240.88117647058806" as="sourcePoint" />
            <mxPoint x="56.74999999999977" y="239.9988235294117" as="targetPoint" />
          </mxGeometry>
        </mxCell>
        <mxCell id="1R7T_758eBagGcp3pDIk-17" value="Proměnné a datové typy" style="rounded=1;whiteSpace=wrap;html=1;fillColor=#d5e8d4;strokeColor=#82b366;" parent="jX2C6xq7MHJStbMYzHnA-255" vertex="1">
          <mxGeometry x="132.5" y="70" width="87.5" height="40" as="geometry" />
        </mxCell>
        <mxCell id="1R7T_758eBagGcp3pDIk-57" value="OOP" style="rounded=1;whiteSpace=wrap;html=1;" parent="jX2C6xq7MHJStbMYzHnA-255" vertex="1">
          <mxGeometry x="34.75" y="460" width="60" height="30" as="geometry" />
        </mxCell>
        <mxCell id="jX2C6xq7MHJStbMYzHnA-297" value="" style="endArrow=classic;html=1;rounded=0;" parent="1" source="jX2C6xq7MHJStbMYzHnA-255" target="jX2C6xq7MHJStbMYzHnA-93" edge="1">
          <mxGeometry width="50" height="50" relative="1" as="geometry">
            <mxPoint x="128" y="40" as="sourcePoint" />
            <mxPoint x="65" y="11" as="targetPoint" />
          </mxGeometry>
        </mxCell>
        <mxCell id="jX2C6xq7MHJStbMYzHnA-298" value="" style="endArrow=classic;html=1;rounded=0;" parent="1" source="jX2C6xq7MHJStbMYzHnA-93" target="jX2C6xq7MHJStbMYzHnA-6" edge="1">
          <mxGeometry width="50" height="50" relative="1" as="geometry">
            <mxPoint x="138" y="50" as="sourcePoint" />
            <mxPoint x="75" y="21" as="targetPoint" />
          </mxGeometry>
        </mxCell>
        <mxCell id="jX2C6xq7MHJStbMYzHnA-299" value="Statické webové stránky" style="swimlane;whiteSpace=wrap;html=1;startSize=40;fillColor=#d5e8d4;strokeColor=#82b366;" parent="1" vertex="1">
          <mxGeometry x="-420" y="-100" width="140" height="140" as="geometry" />
        </mxCell>
        <mxCell id="cuUNJkLqR6fL_RDQFLcp-1" value="HTML" style="rounded=1;whiteSpace=wrap;html=1;fillColor=#d5e8d4;strokeColor=#82b366;" parent="jX2C6xq7MHJStbMYzHnA-299" vertex="1">
          <mxGeometry x="10" y="50" width="50" height="30" as="geometry" />
        </mxCell>
        <mxCell id="cuUNJkLqR6fL_RDQFLcp-2" value="CSS" style="rounded=1;whiteSpace=wrap;html=1;fillColor=#d5e8d4;strokeColor=#82b366;" parent="jX2C6xq7MHJStbMYzHnA-299" vertex="1">
          <mxGeometry x="80" y="100" width="50" height="30" as="geometry" />
        </mxCell>
        <mxCell id="cuUNJkLqR6fL_RDQFLcp-4" value="" style="endArrow=classic;startArrow=classic;html=1;rounded=0;" parent="jX2C6xq7MHJStbMYzHnA-299" source="cuUNJkLqR6fL_RDQFLcp-2" target="cuUNJkLqR6fL_RDQFLcp-1" edge="1">
          <mxGeometry width="50" height="50" relative="1" as="geometry">
            <mxPoint x="430" y="200" as="sourcePoint" />
            <mxPoint x="480" y="150" as="targetPoint" />
          </mxGeometry>
        </mxCell>
        <mxCell id="cuUNJkLqR6fL_RDQFLcp-5" value="" style="endArrow=classic;html=1;rounded=0;" parent="1" source="jX2C6xq7MHJStbMYzHnA-299" target="jX2C6xq7MHJStbMYzHnA-93" edge="1">
          <mxGeometry width="50" height="50" relative="1" as="geometry">
            <mxPoint x="-280" y="100" as="sourcePoint" />
            <mxPoint x="-230" y="50" as="targetPoint" />
          </mxGeometry>
        </mxCell>
        <mxCell id="cuUNJkLqR6fL_RDQFLcp-6" value="HTML" style="swimlane;whiteSpace=wrap;html=1;fillColor=#d5e8d4;strokeColor=#82b366;" parent="1" vertex="1">
          <mxGeometry x="-770" y="-110" width="260" height="310" as="geometry" />
        </mxCell>
        <mxCell id="cuUNJkLqR6fL_RDQFLcp-8" value="h1-6" style="rounded=1;whiteSpace=wrap;html=1;fillColor=#d5e8d4;strokeColor=#82b366;" parent="cuUNJkLqR6fL_RDQFLcp-6" vertex="1">
          <mxGeometry x="10" y="70" width="40" height="25" as="geometry" />
        </mxCell>
        <mxCell id="cuUNJkLqR6fL_RDQFLcp-11" value="html" style="rounded=1;whiteSpace=wrap;html=1;fillColor=#d5e8d4;strokeColor=#82b366;" parent="cuUNJkLqR6fL_RDQFLcp-6" vertex="1">
          <mxGeometry x="10" y="35" width="40" height="25" as="geometry" />
        </mxCell>
        <mxCell id="cuUNJkLqR6fL_RDQFLcp-12" value="head" style="rounded=1;whiteSpace=wrap;html=1;fillColor=#d5e8d4;strokeColor=#82b366;" parent="cuUNJkLqR6fL_RDQFLcp-6" vertex="1">
          <mxGeometry x="60" y="35" width="40" height="25" as="geometry" />
        </mxCell>
        <mxCell id="cuUNJkLqR6fL_RDQFLcp-13" value="body" style="rounded=1;whiteSpace=wrap;html=1;fillColor=#d5e8d4;strokeColor=#82b366;" parent="cuUNJkLqR6fL_RDQFLcp-6" vertex="1">
          <mxGeometry x="110" y="35" width="40" height="25" as="geometry" />
        </mxCell>
        <mxCell id="cuUNJkLqR6fL_RDQFLcp-14" value="p" style="rounded=1;whiteSpace=wrap;html=1;fillColor=#d5e8d4;strokeColor=#82b366;" parent="cuUNJkLqR6fL_RDQFLcp-6" vertex="1">
          <mxGeometry x="60" y="70" width="40" height="25" as="geometry" />
        </mxCell>
        <mxCell id="cuUNJkLqR6fL_RDQFLcp-15" value="a" style="rounded=1;whiteSpace=wrap;html=1;fillColor=#d5e8d4;strokeColor=#82b366;" parent="cuUNJkLqR6fL_RDQFLcp-6" vertex="1">
          <mxGeometry x="110" y="70" width="40" height="25" as="geometry" />
        </mxCell>
        <mxCell id="cuUNJkLqR6fL_RDQFLcp-16" value="strong" style="rounded=1;whiteSpace=wrap;html=1;fillColor=#d5e8d4;strokeColor=#82b366;" parent="cuUNJkLqR6fL_RDQFLcp-6" vertex="1">
          <mxGeometry x="110" y="190" width="40" height="25" as="geometry" />
        </mxCell>
        <mxCell id="cuUNJkLqR6fL_RDQFLcp-17" value="i" style="rounded=1;whiteSpace=wrap;html=1;fillColor=#d5e8d4;strokeColor=#82b366;" parent="cuUNJkLqR6fL_RDQFLcp-6" vertex="1">
          <mxGeometry x="160" y="190" width="40" height="25" as="geometry" />
        </mxCell>
        <mxCell id="cuUNJkLqR6fL_RDQFLcp-18" value="ul" style="rounded=1;whiteSpace=wrap;html=1;fillColor=#d5e8d4;strokeColor=#82b366;" parent="cuUNJkLqR6fL_RDQFLcp-6" vertex="1">
          <mxGeometry x="10" y="110" width="40" height="25" as="geometry" />
        </mxCell>
        <mxCell id="cuUNJkLqR6fL_RDQFLcp-19" value="ol" style="rounded=1;whiteSpace=wrap;html=1;fillColor=#d5e8d4;strokeColor=#82b366;" parent="cuUNJkLqR6fL_RDQFLcp-6" vertex="1">
          <mxGeometry x="60" y="110" width="40" height="25" as="geometry" />
        </mxCell>
        <mxCell id="cuUNJkLqR6fL_RDQFLcp-20" value="li" style="rounded=1;whiteSpace=wrap;html=1;fillColor=#d5e8d4;strokeColor=#82b366;" parent="cuUNJkLqR6fL_RDQFLcp-6" vertex="1">
          <mxGeometry x="110" y="110" width="40" height="25" as="geometry" />
        </mxCell>
        <mxCell id="cuUNJkLqR6fL_RDQFLcp-21" value="img" style="rounded=1;whiteSpace=wrap;html=1;fillColor=#d5e8d4;strokeColor=#82b366;" parent="cuUNJkLqR6fL_RDQFLcp-6" vertex="1">
          <mxGeometry x="160" y="70" width="40" height="25" as="geometry" />
        </mxCell>
        <mxCell id="cuUNJkLqR6fL_RDQFLcp-22" value="table" style="rounded=1;whiteSpace=wrap;html=1;fillColor=#d5e8d4;strokeColor=#82b366;" parent="cuUNJkLqR6fL_RDQFLcp-6" vertex="1">
          <mxGeometry x="10" y="150" width="40" height="25" as="geometry" />
        </mxCell>
        <mxCell id="cuUNJkLqR6fL_RDQFLcp-23" value="tr" style="rounded=1;whiteSpace=wrap;html=1;fillColor=#d5e8d4;strokeColor=#82b366;" parent="cuUNJkLqR6fL_RDQFLcp-6" vertex="1">
          <mxGeometry x="60" y="150" width="40" height="25" as="geometry" />
        </mxCell>
        <mxCell id="cuUNJkLqR6fL_RDQFLcp-24" value="td" style="rounded=1;whiteSpace=wrap;html=1;fillColor=#d5e8d4;strokeColor=#82b366;" parent="cuUNJkLqR6fL_RDQFLcp-6" vertex="1">
          <mxGeometry x="110" y="150" width="40" height="25" as="geometry" />
        </mxCell>
        <mxCell id="cuUNJkLqR6fL_RDQFLcp-25" value="th" style="rounded=1;whiteSpace=wrap;html=1;fillColor=#d5e8d4;strokeColor=#82b366;" parent="cuUNJkLqR6fL_RDQFLcp-6" vertex="1">
          <mxGeometry x="160" y="150" width="40" height="25" as="geometry" />
        </mxCell>
        <mxCell id="cuUNJkLqR6fL_RDQFLcp-26" value="div" style="rounded=1;whiteSpace=wrap;html=1;fillColor=#d5e8d4;strokeColor=#82b366;" parent="cuUNJkLqR6fL_RDQFLcp-6" vertex="1">
          <mxGeometry x="10" y="190" width="40" height="25" as="geometry" />
        </mxCell>
        <mxCell id="cuUNJkLqR6fL_RDQFLcp-27" value="span" style="rounded=1;whiteSpace=wrap;html=1;fillColor=#d5e8d4;strokeColor=#82b366;" parent="cuUNJkLqR6fL_RDQFLcp-6" vertex="1">
          <mxGeometry x="60" y="190" width="40" height="25" as="geometry" />
        </mxCell>
        <mxCell id="cuUNJkLqR6fL_RDQFLcp-28" value="br" style="rounded=1;whiteSpace=wrap;html=1;fillColor=#d5e8d4;strokeColor=#82b366;" parent="cuUNJkLqR6fL_RDQFLcp-6" vertex="1">
          <mxGeometry x="210" y="80" width="40" height="25" as="geometry" />
        </mxCell>
        <mxCell id="cuUNJkLqR6fL_RDQFLcp-29" value="form" style="rounded=1;whiteSpace=wrap;html=1;fillColor=#d5e8d4;strokeColor=#82b366;" parent="cuUNJkLqR6fL_RDQFLcp-6" vertex="1">
          <mxGeometry x="10" y="230" width="40" height="25" as="geometry" />
        </mxCell>
        <mxCell id="cuUNJkLqR6fL_RDQFLcp-30" value="input" style="rounded=1;whiteSpace=wrap;html=1;fillColor=#d5e8d4;strokeColor=#82b366;" parent="cuUNJkLqR6fL_RDQFLcp-6" vertex="1">
          <mxGeometry x="110" y="230" width="40" height="25" as="geometry" />
        </mxCell>
        <mxCell id="cuUNJkLqR6fL_RDQFLcp-31" value="label" style="rounded=1;whiteSpace=wrap;html=1;fillColor=#d5e8d4;strokeColor=#82b366;" parent="cuUNJkLqR6fL_RDQFLcp-6" vertex="1">
          <mxGeometry x="160" y="230" width="40" height="25" as="geometry" />
        </mxCell>
        <mxCell id="cuUNJkLqR6fL_RDQFLcp-32" value="nav" style="rounded=1;whiteSpace=wrap;html=1;fillColor=#d5e8d4;strokeColor=#82b366;" parent="cuUNJkLqR6fL_RDQFLcp-6" vertex="1">
          <mxGeometry x="10" y="270" width="40" height="25" as="geometry" />
        </mxCell>
        <mxCell id="cuUNJkLqR6fL_RDQFLcp-33" value="footer" style="rounded=1;whiteSpace=wrap;html=1;fillColor=#d5e8d4;strokeColor=#82b366;" parent="cuUNJkLqR6fL_RDQFLcp-6" vertex="1">
          <mxGeometry x="60" y="270" width="40" height="25" as="geometry" />
        </mxCell>
        <mxCell id="cuUNJkLqR6fL_RDQFLcp-34" value="header" style="rounded=1;whiteSpace=wrap;html=1;fillColor=#d5e8d4;strokeColor=#82b366;" parent="cuUNJkLqR6fL_RDQFLcp-6" vertex="1">
          <mxGeometry x="110" y="270" width="40" height="25" as="geometry" />
        </mxCell>
        <mxCell id="cuUNJkLqR6fL_RDQFLcp-36" value="meta" style="rounded=1;whiteSpace=wrap;html=1;fillColor=#d5e8d4;strokeColor=#82b366;" parent="cuUNJkLqR6fL_RDQFLcp-6" vertex="1">
          <mxGeometry x="160" y="35" width="40" height="25" as="geometry" />
        </mxCell>
        <mxCell id="cuUNJkLqR6fL_RDQFLcp-37" value="link (css)" style="rounded=1;whiteSpace=wrap;html=1;fillColor=#d5e8d4;strokeColor=#82b366;" parent="cuUNJkLqR6fL_RDQFLcp-6" vertex="1">
          <mxGeometry x="210" y="35" width="40" height="35" as="geometry" />
        </mxCell>
        <mxCell id="cuUNJkLqR6fL_RDQFLcp-38" value="id" style="rounded=1;whiteSpace=wrap;html=1;fillColor=#d5e8d4;strokeColor=#82b366;" parent="cuUNJkLqR6fL_RDQFLcp-6" vertex="1">
          <mxGeometry x="160" y="270" width="40" height="25" as="geometry" />
        </mxCell>
        <mxCell id="cuUNJkLqR6fL_RDQFLcp-39" value="class" style="rounded=1;whiteSpace=wrap;html=1;fillColor=#d5e8d4;strokeColor=#82b366;" parent="cuUNJkLqR6fL_RDQFLcp-6" vertex="1">
          <mxGeometry x="210" y="270" width="40" height="25" as="geometry" />
        </mxCell>
        <mxCell id="cuUNJkLqR6fL_RDQFLcp-41" value="" style="endArrow=classic;html=1;rounded=0;" parent="cuUNJkLqR6fL_RDQFLcp-6" source="cuUNJkLqR6fL_RDQFLcp-30" target="cuUNJkLqR6fL_RDQFLcp-29" edge="1">
          <mxGeometry width="50" height="50" relative="1" as="geometry">
            <mxPoint x="270" y="126" as="sourcePoint" />
            <mxPoint x="320" y="111" as="targetPoint" />
          </mxGeometry>
        </mxCell>
        <mxCell id="cuUNJkLqR6fL_RDQFLcp-68" value="atribut" style="rounded=1;whiteSpace=wrap;html=1;fillColor=#d5e8d4;strokeColor=#82b366;" parent="cuUNJkLqR6fL_RDQFLcp-6" vertex="1">
          <mxGeometry x="160" y="110" width="40" height="25" as="geometry" />
        </mxCell>
        <mxCell id="cuUNJkLqR6fL_RDQFLcp-7" value="CSS" style="swimlane;whiteSpace=wrap;html=1;fillColor=#d5e8d4;strokeColor=#82b366;" parent="1" vertex="1">
          <mxGeometry x="-770" y="230" width="430" height="330" as="geometry" />
        </mxCell>
        <mxCell id="cuUNJkLqR6fL_RDQFLcp-35" value="id" style="rounded=1;whiteSpace=wrap;html=1;fillColor=#d5e8d4;strokeColor=#82b366;" parent="cuUNJkLqR6fL_RDQFLcp-7" vertex="1">
          <mxGeometry x="10" y="35" width="40" height="25" as="geometry" />
        </mxCell>
        <mxCell id="cuUNJkLqR6fL_RDQFLcp-43" value="class" style="rounded=1;whiteSpace=wrap;html=1;fillColor=#d5e8d4;strokeColor=#82b366;" parent="cuUNJkLqR6fL_RDQFLcp-7" vertex="1">
          <mxGeometry x="60" y="35" width="40" height="25" as="geometry" />
        </mxCell>
        <mxCell id="cuUNJkLqR6fL_RDQFLcp-44" value="align" style="rounded=1;whiteSpace=wrap;html=1;fillColor=#d5e8d4;strokeColor=#82b366;" parent="cuUNJkLqR6fL_RDQFLcp-7" vertex="1">
          <mxGeometry x="110" y="35" width="40" height="25" as="geometry" />
        </mxCell>
        <mxCell id="cuUNJkLqR6fL_RDQFLcp-45" value="border" style="rounded=1;whiteSpace=wrap;html=1;fillColor=#d5e8d4;strokeColor=#82b366;" parent="cuUNJkLqR6fL_RDQFLcp-7" vertex="1">
          <mxGeometry x="80" y="70" width="50" height="25" as="geometry" />
        </mxCell>
        <mxCell id="cuUNJkLqR6fL_RDQFLcp-46" value="box-model" style="rounded=1;whiteSpace=wrap;html=1;fillColor=#d5e8d4;strokeColor=#82b366;" parent="cuUNJkLqR6fL_RDQFLcp-7" vertex="1">
          <mxGeometry x="10" y="70" width="40" height="50" as="geometry" />
        </mxCell>
        <mxCell id="cuUNJkLqR6fL_RDQFLcp-47" value="margin" style="rounded=1;whiteSpace=wrap;html=1;fillColor=#d5e8d4;strokeColor=#82b366;" parent="cuUNJkLqR6fL_RDQFLcp-7" vertex="1">
          <mxGeometry x="80" y="100" width="50" height="25" as="geometry" />
        </mxCell>
        <mxCell id="cuUNJkLqR6fL_RDQFLcp-48" value="padding" style="rounded=1;whiteSpace=wrap;html=1;fillColor=#d5e8d4;strokeColor=#82b366;" parent="cuUNJkLqR6fL_RDQFLcp-7" vertex="1">
          <mxGeometry x="80" y="130" width="50" height="25" as="geometry" />
        </mxCell>
        <mxCell id="cuUNJkLqR6fL_RDQFLcp-49" value="" style="endArrow=classic;html=1;rounded=0;" parent="cuUNJkLqR6fL_RDQFLcp-7" source="cuUNJkLqR6fL_RDQFLcp-45" target="cuUNJkLqR6fL_RDQFLcp-46" edge="1">
          <mxGeometry width="50" height="50" relative="1" as="geometry">
            <mxPoint x="270" y="-204" as="sourcePoint" />
            <mxPoint x="320" y="-219" as="targetPoint" />
          </mxGeometry>
        </mxCell>
        <mxCell id="cuUNJkLqR6fL_RDQFLcp-50" value="" style="endArrow=classic;html=1;rounded=0;" parent="cuUNJkLqR6fL_RDQFLcp-7" source="cuUNJkLqR6fL_RDQFLcp-47" target="cuUNJkLqR6fL_RDQFLcp-46" edge="1">
          <mxGeometry width="50" height="50" relative="1" as="geometry">
            <mxPoint x="90" y="97" as="sourcePoint" />
            <mxPoint x="60" y="102" as="targetPoint" />
          </mxGeometry>
        </mxCell>
        <mxCell id="cuUNJkLqR6fL_RDQFLcp-51" value="" style="endArrow=classic;html=1;rounded=0;" parent="cuUNJkLqR6fL_RDQFLcp-7" source="cuUNJkLqR6fL_RDQFLcp-48" target="cuUNJkLqR6fL_RDQFLcp-46" edge="1">
          <mxGeometry width="50" height="50" relative="1" as="geometry">
            <mxPoint x="100" y="107" as="sourcePoint" />
            <mxPoint x="70" y="112" as="targetPoint" />
          </mxGeometry>
        </mxCell>
        <mxCell id="cuUNJkLqR6fL_RDQFLcp-52" value="color" style="rounded=1;whiteSpace=wrap;html=1;fillColor=#d5e8d4;strokeColor=#82b366;" parent="cuUNJkLqR6fL_RDQFLcp-7" vertex="1">
          <mxGeometry x="160" y="35" width="40" height="25" as="geometry" />
        </mxCell>
        <mxCell id="cuUNJkLqR6fL_RDQFLcp-53" value="rgb" style="rounded=1;whiteSpace=wrap;html=1;fillColor=#d5e8d4;strokeColor=#82b366;" parent="cuUNJkLqR6fL_RDQFLcp-7" vertex="1">
          <mxGeometry x="210" y="35" width="40" height="25" as="geometry" />
        </mxCell>
        <mxCell id="cuUNJkLqR6fL_RDQFLcp-54" value="rgba" style="rounded=1;whiteSpace=wrap;html=1;fillColor=#d5e8d4;strokeColor=#82b366;" parent="cuUNJkLqR6fL_RDQFLcp-7" vertex="1">
          <mxGeometry x="210" y="70" width="40" height="25" as="geometry" />
        </mxCell>
        <mxCell id="cuUNJkLqR6fL_RDQFLcp-55" value="" style="endArrow=classic;html=1;rounded=0;" parent="cuUNJkLqR6fL_RDQFLcp-7" source="cuUNJkLqR6fL_RDQFLcp-53" target="cuUNJkLqR6fL_RDQFLcp-52" edge="1">
          <mxGeometry width="50" height="50" relative="1" as="geometry">
            <mxPoint x="90" y="97" as="sourcePoint" />
            <mxPoint x="60" y="102" as="targetPoint" />
          </mxGeometry>
        </mxCell>
        <mxCell id="cuUNJkLqR6fL_RDQFLcp-56" value="" style="endArrow=classic;html=1;rounded=0;" parent="cuUNJkLqR6fL_RDQFLcp-7" source="cuUNJkLqR6fL_RDQFLcp-54" target="cuUNJkLqR6fL_RDQFLcp-52" edge="1">
          <mxGeometry width="50" height="50" relative="1" as="geometry">
            <mxPoint x="260" y="129.9975" as="sourcePoint" />
            <mxPoint x="120" y="155.81" as="targetPoint" />
          </mxGeometry>
        </mxCell>
        <mxCell id="cuUNJkLqR6fL_RDQFLcp-59" value="@media" style="rounded=1;whiteSpace=wrap;html=1;fillColor=#d5e8d4;strokeColor=#82b366;" parent="cuUNJkLqR6fL_RDQFLcp-7" vertex="1">
          <mxGeometry x="265" y="147.5" width="60" height="25" as="geometry" />
        </mxCell>
        <mxCell id="cuUNJkLqR6fL_RDQFLcp-60" value="responzivní design" style="rounded=1;whiteSpace=wrap;html=1;fillColor=#d5e8d4;strokeColor=#82b366;" parent="cuUNJkLqR6fL_RDQFLcp-7" vertex="1">
          <mxGeometry x="351" y="185" width="70" height="35" as="geometry" />
        </mxCell>
        <mxCell id="cuUNJkLqR6fL_RDQFLcp-61" value="" style="endArrow=classic;html=1;rounded=0;" parent="cuUNJkLqR6fL_RDQFLcp-7" source="cuUNJkLqR6fL_RDQFLcp-59" target="cuUNJkLqR6fL_RDQFLcp-60" edge="1">
          <mxGeometry width="50" height="50" relative="1" as="geometry">
            <mxPoint x="95" y="140" as="sourcePoint" />
            <mxPoint x="60" y="118" as="targetPoint" />
          </mxGeometry>
        </mxCell>
        <mxCell id="cuUNJkLqR6fL_RDQFLcp-62" value="selektory / kombinátory" style="rounded=1;whiteSpace=wrap;html=1;fillColor=#d5e8d4;strokeColor=#82b366;" parent="cuUNJkLqR6fL_RDQFLcp-7" vertex="1">
          <mxGeometry x="10" y="160" width="80" height="35" as="geometry" />
        </mxCell>
        <mxCell id="cuUNJkLqR6fL_RDQFLcp-63" value="jednotky" style="rounded=1;whiteSpace=wrap;html=1;fillColor=#d5e8d4;strokeColor=#82b366;" parent="cuUNJkLqR6fL_RDQFLcp-7" vertex="1">
          <mxGeometry x="10" y="210" width="60" height="20" as="geometry" />
        </mxCell>
        <mxCell id="cuUNJkLqR6fL_RDQFLcp-64" value="relativní" style="rounded=1;whiteSpace=wrap;html=1;fillColor=#d5e8d4;strokeColor=#82b366;" parent="cuUNJkLqR6fL_RDQFLcp-7" vertex="1">
          <mxGeometry x="90" y="200" width="60" height="20" as="geometry" />
        </mxCell>
        <mxCell id="cuUNJkLqR6fL_RDQFLcp-65" value="absolutní" style="rounded=1;whiteSpace=wrap;html=1;fillColor=#d5e8d4;strokeColor=#82b366;" parent="cuUNJkLqR6fL_RDQFLcp-7" vertex="1">
          <mxGeometry x="80" y="250" width="60" height="20" as="geometry" />
        </mxCell>
        <mxCell id="cuUNJkLqR6fL_RDQFLcp-66" value="vw" style="rounded=1;whiteSpace=wrap;html=1;fillColor=#d5e8d4;strokeColor=#82b366;" parent="cuUNJkLqR6fL_RDQFLcp-7" vertex="1">
          <mxGeometry x="165" y="170" width="30" height="15" as="geometry" />
        </mxCell>
        <mxCell id="cuUNJkLqR6fL_RDQFLcp-67" value="vh" style="rounded=1;whiteSpace=wrap;html=1;fillColor=#d5e8d4;strokeColor=#82b366;" parent="cuUNJkLqR6fL_RDQFLcp-7" vertex="1">
          <mxGeometry x="165" y="195" width="30" height="15" as="geometry" />
        </mxCell>
        <mxCell id="cuUNJkLqR6fL_RDQFLcp-69" value="%" style="rounded=1;whiteSpace=wrap;html=1;fillColor=#d5e8d4;strokeColor=#82b366;" parent="cuUNJkLqR6fL_RDQFLcp-7" vertex="1">
          <mxGeometry x="165" y="220" width="30" height="15" as="geometry" />
        </mxCell>
        <mxCell id="cuUNJkLqR6fL_RDQFLcp-70" value="em" style="rounded=1;whiteSpace=wrap;html=1;fillColor=#d5e8d4;strokeColor=#82b366;" parent="cuUNJkLqR6fL_RDQFLcp-7" vertex="1">
          <mxGeometry x="165" y="250" width="30" height="15" as="geometry" />
        </mxCell>
        <mxCell id="cuUNJkLqR6fL_RDQFLcp-73" value="" style="endArrow=classic;html=1;rounded=0;" parent="cuUNJkLqR6fL_RDQFLcp-7" source="cuUNJkLqR6fL_RDQFLcp-66" target="cuUNJkLqR6fL_RDQFLcp-64" edge="1">
          <mxGeometry width="50" height="50" relative="1" as="geometry">
            <mxPoint x="95" y="140" as="sourcePoint" />
            <mxPoint x="60" y="118" as="targetPoint" />
          </mxGeometry>
        </mxCell>
        <mxCell id="cuUNJkLqR6fL_RDQFLcp-74" value="" style="endArrow=classic;html=1;rounded=0;" parent="cuUNJkLqR6fL_RDQFLcp-7" source="cuUNJkLqR6fL_RDQFLcp-67" target="cuUNJkLqR6fL_RDQFLcp-64" edge="1">
          <mxGeometry width="50" height="50" relative="1" as="geometry">
            <mxPoint x="176" y="195" as="sourcePoint" />
            <mxPoint x="148" y="210" as="targetPoint" />
          </mxGeometry>
        </mxCell>
        <mxCell id="cuUNJkLqR6fL_RDQFLcp-75" value="" style="endArrow=classic;html=1;rounded=0;" parent="cuUNJkLqR6fL_RDQFLcp-7" source="cuUNJkLqR6fL_RDQFLcp-69" target="cuUNJkLqR6fL_RDQFLcp-64" edge="1">
          <mxGeometry width="50" height="50" relative="1" as="geometry">
            <mxPoint x="186" y="205" as="sourcePoint" />
            <mxPoint x="158" y="220" as="targetPoint" />
          </mxGeometry>
        </mxCell>
        <mxCell id="cuUNJkLqR6fL_RDQFLcp-76" value="" style="endArrow=classic;html=1;rounded=0;" parent="cuUNJkLqR6fL_RDQFLcp-7" source="cuUNJkLqR6fL_RDQFLcp-70" target="cuUNJkLqR6fL_RDQFLcp-64" edge="1">
          <mxGeometry width="50" height="50" relative="1" as="geometry">
            <mxPoint x="196" y="215" as="sourcePoint" />
            <mxPoint x="168" y="230" as="targetPoint" />
          </mxGeometry>
        </mxCell>
        <mxCell id="cuUNJkLqR6fL_RDQFLcp-77" value="px" style="rounded=1;whiteSpace=wrap;html=1;fillColor=#d5e8d4;strokeColor=#82b366;" parent="cuUNJkLqR6fL_RDQFLcp-7" vertex="1">
          <mxGeometry x="165" y="270" width="30" height="15" as="geometry" />
        </mxCell>
        <mxCell id="cuUNJkLqR6fL_RDQFLcp-78" value="" style="endArrow=classic;html=1;rounded=0;" parent="cuUNJkLqR6fL_RDQFLcp-7" source="cuUNJkLqR6fL_RDQFLcp-77" target="cuUNJkLqR6fL_RDQFLcp-65" edge="1">
          <mxGeometry width="50" height="50" relative="1" as="geometry">
            <mxPoint x="181" y="260" as="sourcePoint" />
            <mxPoint x="143" y="230" as="targetPoint" />
          </mxGeometry>
        </mxCell>
        <mxCell id="cuUNJkLqR6fL_RDQFLcp-79" value="" style="endArrow=classic;html=1;rounded=0;" parent="cuUNJkLqR6fL_RDQFLcp-7" source="cuUNJkLqR6fL_RDQFLcp-64" target="cuUNJkLqR6fL_RDQFLcp-63" edge="1">
          <mxGeometry width="50" height="50" relative="1" as="geometry">
            <mxPoint x="191" y="270" as="sourcePoint" />
            <mxPoint x="153" y="240" as="targetPoint" />
          </mxGeometry>
        </mxCell>
        <mxCell id="cuUNJkLqR6fL_RDQFLcp-80" value="" style="endArrow=classic;html=1;rounded=0;" parent="cuUNJkLqR6fL_RDQFLcp-7" source="cuUNJkLqR6fL_RDQFLcp-65" target="cuUNJkLqR6fL_RDQFLcp-63" edge="1">
          <mxGeometry width="50" height="50" relative="1" as="geometry">
            <mxPoint x="201" y="280" as="sourcePoint" />
            <mxPoint x="163" y="250" as="targetPoint" />
          </mxGeometry>
        </mxCell>
        <mxCell id="cuUNJkLqR6fL_RDQFLcp-81" value="pseudo-class" style="rounded=1;whiteSpace=wrap;html=1;fillColor=#d5e8d4;strokeColor=#82b366;" parent="cuUNJkLqR6fL_RDQFLcp-7" vertex="1">
          <mxGeometry x="260" y="35" width="70" height="35" as="geometry" />
        </mxCell>
        <mxCell id="cuUNJkLqR6fL_RDQFLcp-82" value="pseudo-element" style="rounded=1;whiteSpace=wrap;html=1;fillColor=#d5e8d4;strokeColor=#82b366;" parent="cuUNJkLqR6fL_RDQFLcp-7" vertex="1">
          <mxGeometry x="260" y="77.5" width="70" height="35" as="geometry" />
        </mxCell>
        <mxCell id="cuUNJkLqR6fL_RDQFLcp-83" value=":hover" style="rounded=1;whiteSpace=wrap;html=1;fillColor=#d5e8d4;strokeColor=#82b366;" parent="cuUNJkLqR6fL_RDQFLcp-7" vertex="1">
          <mxGeometry x="356" y="35" width="40" height="25" as="geometry" />
        </mxCell>
        <mxCell id="cuUNJkLqR6fL_RDQFLcp-85" value="::before" style="rounded=1;whiteSpace=wrap;html=1;fillColor=#d5e8d4;strokeColor=#82b366;" parent="cuUNJkLqR6fL_RDQFLcp-7" vertex="1">
          <mxGeometry x="356" y="70" width="50" height="20" as="geometry" />
        </mxCell>
        <mxCell id="cuUNJkLqR6fL_RDQFLcp-86" value="::after" style="rounded=1;whiteSpace=wrap;html=1;fillColor=#d5e8d4;strokeColor=#82b366;" parent="cuUNJkLqR6fL_RDQFLcp-7" vertex="1">
          <mxGeometry x="356" y="100" width="50" height="20" as="geometry" />
        </mxCell>
        <mxCell id="cuUNJkLqR6fL_RDQFLcp-88" value="" style="endArrow=classic;html=1;rounded=0;" parent="cuUNJkLqR6fL_RDQFLcp-7" source="cuUNJkLqR6fL_RDQFLcp-83" target="cuUNJkLqR6fL_RDQFLcp-81" edge="1">
          <mxGeometry width="50" height="50" relative="1" as="geometry">
            <mxPoint x="103" y="260" as="sourcePoint" />
            <mxPoint x="68" y="240" as="targetPoint" />
          </mxGeometry>
        </mxCell>
        <mxCell id="cuUNJkLqR6fL_RDQFLcp-89" value="" style="endArrow=classic;html=1;rounded=0;" parent="cuUNJkLqR6fL_RDQFLcp-7" source="cuUNJkLqR6fL_RDQFLcp-85" target="cuUNJkLqR6fL_RDQFLcp-82" edge="1">
          <mxGeometry width="50" height="50" relative="1" as="geometry">
            <mxPoint x="366" y="59" as="sourcePoint" />
            <mxPoint x="340" y="60" as="targetPoint" />
          </mxGeometry>
        </mxCell>
        <mxCell id="cuUNJkLqR6fL_RDQFLcp-90" value="" style="endArrow=classic;html=1;rounded=0;" parent="cuUNJkLqR6fL_RDQFLcp-7" source="cuUNJkLqR6fL_RDQFLcp-86" target="cuUNJkLqR6fL_RDQFLcp-82" edge="1">
          <mxGeometry width="50" height="50" relative="1" as="geometry">
            <mxPoint x="376" y="69" as="sourcePoint" />
            <mxPoint x="350" y="70" as="targetPoint" />
          </mxGeometry>
        </mxCell>
        <mxCell id="cuUNJkLqR6fL_RDQFLcp-91" value="::selection" style="rounded=1;whiteSpace=wrap;html=1;fillColor=#d5e8d4;strokeColor=#82b366;" parent="cuUNJkLqR6fL_RDQFLcp-7" vertex="1">
          <mxGeometry x="356" y="127.5" width="60" height="20" as="geometry" />
        </mxCell>
        <mxCell id="cuUNJkLqR6fL_RDQFLcp-92" value="::marker" style="rounded=1;whiteSpace=wrap;html=1;fillColor=#d5e8d4;strokeColor=#82b366;" parent="cuUNJkLqR6fL_RDQFLcp-7" vertex="1">
          <mxGeometry x="356" y="155" width="60" height="20" as="geometry" />
        </mxCell>
        <mxCell id="cuUNJkLqR6fL_RDQFLcp-93" value="" style="endArrow=classic;html=1;rounded=0;" parent="cuUNJkLqR6fL_RDQFLcp-7" source="cuUNJkLqR6fL_RDQFLcp-91" target="cuUNJkLqR6fL_RDQFLcp-82" edge="1">
          <mxGeometry width="50" height="50" relative="1" as="geometry">
            <mxPoint x="405" y="153" as="sourcePoint" />
            <mxPoint x="360" y="153" as="targetPoint" />
          </mxGeometry>
        </mxCell>
        <mxCell id="cuUNJkLqR6fL_RDQFLcp-94" value="" style="endArrow=classic;html=1;rounded=0;" parent="cuUNJkLqR6fL_RDQFLcp-7" source="cuUNJkLqR6fL_RDQFLcp-92" target="cuUNJkLqR6fL_RDQFLcp-82" edge="1">
          <mxGeometry width="50" height="50" relative="1" as="geometry">
            <mxPoint x="415" y="163" as="sourcePoint" />
            <mxPoint x="370" y="163" as="targetPoint" />
          </mxGeometry>
        </mxCell>
        <mxCell id="cuUNJkLqR6fL_RDQFLcp-95" value="mm" style="rounded=1;whiteSpace=wrap;html=1;fillColor=#d5e8d4;strokeColor=#82b366;" parent="cuUNJkLqR6fL_RDQFLcp-7" vertex="1">
          <mxGeometry x="165" y="295" width="30" height="15" as="geometry" />
        </mxCell>
        <mxCell id="cuUNJkLqR6fL_RDQFLcp-96" value="" style="endArrow=classic;html=1;rounded=0;" parent="cuUNJkLqR6fL_RDQFLcp-7" source="cuUNJkLqR6fL_RDQFLcp-95" target="cuUNJkLqR6fL_RDQFLcp-65" edge="1">
          <mxGeometry width="50" height="50" relative="1" as="geometry">
            <mxPoint x="175" y="284" as="sourcePoint" />
            <mxPoint x="150" y="278" as="targetPoint" />
          </mxGeometry>
        </mxCell>
        <mxCell id="1R7T_758eBagGcp3pDIk-22" value="min-width" style="rounded=1;whiteSpace=wrap;html=1;fillColor=#d5e8d4;strokeColor=#82b366;" parent="cuUNJkLqR6fL_RDQFLcp-7" vertex="1">
          <mxGeometry x="265" y="185" width="60" height="25" as="geometry" />
        </mxCell>
        <mxCell id="1R7T_758eBagGcp3pDIk-23" value="max-width" style="rounded=1;whiteSpace=wrap;html=1;fillColor=#d5e8d4;strokeColor=#82b366;" parent="cuUNJkLqR6fL_RDQFLcp-7" vertex="1">
          <mxGeometry x="265" y="220" width="60" height="25" as="geometry" />
        </mxCell>
        <mxCell id="1R7T_758eBagGcp3pDIk-25" value="" style="endArrow=classic;html=1;rounded=0;" parent="cuUNJkLqR6fL_RDQFLcp-7" source="1R7T_758eBagGcp3pDIk-22" target="cuUNJkLqR6fL_RDQFLcp-60" edge="1">
          <mxGeometry width="50" height="50" relative="1" as="geometry">
            <mxPoint x="320" y="184" as="sourcePoint" />
            <mxPoint x="361" y="199" as="targetPoint" />
          </mxGeometry>
        </mxCell>
        <mxCell id="1R7T_758eBagGcp3pDIk-26" value="" style="endArrow=classic;html=1;rounded=0;" parent="cuUNJkLqR6fL_RDQFLcp-7" source="1R7T_758eBagGcp3pDIk-23" target="cuUNJkLqR6fL_RDQFLcp-60" edge="1">
          <mxGeometry width="50" height="50" relative="1" as="geometry">
            <mxPoint x="320" y="209" as="sourcePoint" />
            <mxPoint x="361" y="211" as="targetPoint" />
          </mxGeometry>
        </mxCell>
        <mxCell id="1R7T_758eBagGcp3pDIk-40" value="font-size" style="rounded=1;whiteSpace=wrap;html=1;fillColor=#d5e8d4;strokeColor=#82b366;" parent="cuUNJkLqR6fL_RDQFLcp-7" vertex="1">
          <mxGeometry x="140" y="75" width="60" height="25" as="geometry" />
        </mxCell>
        <mxCell id="1R7T_758eBagGcp3pDIk-41" value="font-family" style="rounded=1;whiteSpace=wrap;html=1;fillColor=#d5e8d4;strokeColor=#82b366;" parent="cuUNJkLqR6fL_RDQFLcp-7" vertex="1">
          <mxGeometry x="140" y="105" width="60" height="25" as="geometry" />
        </mxCell>
        <mxCell id="1R7T_758eBagGcp3pDIk-42" value="background-color" style="rounded=1;whiteSpace=wrap;html=1;fillColor=#d5e8d4;strokeColor=#82b366;" parent="cuUNJkLqR6fL_RDQFLcp-7" vertex="1">
          <mxGeometry x="140" y="135" width="110" height="25" as="geometry" />
        </mxCell>
        <mxCell id="cuUNJkLqR6fL_RDQFLcp-40" value="" style="endArrow=classic;html=1;rounded=0;" parent="1" source="cuUNJkLqR6fL_RDQFLcp-6" target="cuUNJkLqR6fL_RDQFLcp-1" edge="1">
          <mxGeometry width="50" height="50" relative="1" as="geometry">
            <mxPoint x="-270" y="8" as="sourcePoint" />
            <mxPoint x="-200" y="36" as="targetPoint" />
          </mxGeometry>
        </mxCell>
        <mxCell id="cuUNJkLqR6fL_RDQFLcp-97" value="" style="endArrow=classic;html=1;rounded=0;" parent="1" source="cuUNJkLqR6fL_RDQFLcp-7" target="cuUNJkLqR6fL_RDQFLcp-2" edge="1">
          <mxGeometry width="50" height="50" relative="1" as="geometry">
            <mxPoint x="-460" y="16" as="sourcePoint" />
            <mxPoint x="-410" y="1" as="targetPoint" />
          </mxGeometry>
        </mxCell>
        <mxCell id="cuUNJkLqR6fL_RDQFLcp-103" value="Vybrané algoritmy - znalost algoritmu" style="swimlane;whiteSpace=wrap;html=1;" parent="1" vertex="1">
          <mxGeometry x="1580" y="-310" width="500" height="710" as="geometry" />
        </mxCell>
        <mxCell id="cuUNJkLqR6fL_RDQFLcp-115" value="Řešení lineární rovnice v obecném tvaru" style="rounded=1;whiteSpace=wrap;html=1;fillColor=#d5e8d4;strokeColor=#82b366;" parent="cuUNJkLqR6fL_RDQFLcp-103" vertex="1">
          <mxGeometry x="20" y="142.5" width="140" height="35" as="geometry" />
        </mxCell>
        <mxCell id="cuUNJkLqR6fL_RDQFLcp-116" value="Řešení kvadratické rovnice v obecném tvaru" style="rounded=1;whiteSpace=wrap;html=1;fillColor=#d5e8d4;strokeColor=#82b366;" parent="cuUNJkLqR6fL_RDQFLcp-103" vertex="1">
          <mxGeometry x="20" y="196.25" width="140" height="35" as="geometry" />
        </mxCell>
        <mxCell id="cuUNJkLqR6fL_RDQFLcp-117" value="Euklidův algoritmus" style="rounded=1;whiteSpace=wrap;html=1;fillColor=#d5e8d4;strokeColor=#82b366;" parent="cuUNJkLqR6fL_RDQFLcp-103" vertex="1">
          <mxGeometry x="20" y="247.5" width="120" height="30" as="geometry" />
        </mxCell>
        <mxCell id="cuUNJkLqR6fL_RDQFLcp-118" value="Hornerovo schema" style="rounded=1;whiteSpace=wrap;html=1;fillColor=#d5e8d4;strokeColor=#82b366;" parent="cuUNJkLqR6fL_RDQFLcp-103" vertex="1">
          <mxGeometry x="20" y="292.5" width="120" height="30" as="geometry" />
        </mxCell>
        <mxCell id="cuUNJkLqR6fL_RDQFLcp-119" value="Eratosthenovo síto" style="rounded=1;whiteSpace=wrap;html=1;fillColor=#d5e8d4;strokeColor=#82b366;" parent="cuUNJkLqR6fL_RDQFLcp-103" vertex="1">
          <mxGeometry x="290" y="136.25" width="120" height="30" as="geometry" />
        </mxCell>
        <mxCell id="1R7T_758eBagGcp3pDIk-30" value="Prohození hodnot dvou proměnných" style="rounded=1;whiteSpace=wrap;html=1;fillColor=#d5e8d4;strokeColor=#82b366;" parent="cuUNJkLqR6fL_RDQFLcp-103" vertex="1">
          <mxGeometry x="20" y="40" width="140" height="35" as="geometry" />
        </mxCell>
        <mxCell id="1R7T_758eBagGcp3pDIk-32" value="&lt;div&gt;Minimum/maximum v poli&lt;/div&gt;" style="rounded=1;whiteSpace=wrap;html=1;fillColor=#d5e8d4;strokeColor=#82b366;" parent="cuUNJkLqR6fL_RDQFLcp-103" vertex="1">
          <mxGeometry x="181" y="40" width="119" height="40" as="geometry" />
        </mxCell>
        <mxCell id="1R7T_758eBagGcp3pDIk-33" value="Faktoriál iterativně" style="rounded=1;whiteSpace=wrap;html=1;fillColor=#d5e8d4;strokeColor=#82b366;" parent="cuUNJkLqR6fL_RDQFLcp-103" vertex="1">
          <mxGeometry x="181" y="95" width="120" height="30" as="geometry" />
        </mxCell>
        <mxCell id="1R7T_758eBagGcp3pDIk-34" value="Faktoriál rekurzivně" style="rounded=1;whiteSpace=wrap;html=1;fillColor=#d5e8d4;strokeColor=#82b366;" parent="cuUNJkLqR6fL_RDQFLcp-103" vertex="1">
          <mxGeometry x="181" y="210" width="120" height="30" as="geometry" />
        </mxCell>
        <mxCell id="1R7T_758eBagGcp3pDIk-35" value="rekurze" style="rounded=1;whiteSpace=wrap;html=1;" parent="cuUNJkLqR6fL_RDQFLcp-103" vertex="1">
          <mxGeometry x="320" y="231.25" width="60" height="25" as="geometry" />
        </mxCell>
        <mxCell id="1R7T_758eBagGcp3pDIk-36" value="" style="endArrow=classic;html=1;rounded=0;" parent="cuUNJkLqR6fL_RDQFLcp-103" source="1R7T_758eBagGcp3pDIk-35" target="1R7T_758eBagGcp3pDIk-34" edge="1">
          <mxGeometry width="50" height="50" relative="1" as="geometry">
            <mxPoint x="-129" y="290" as="sourcePoint" />
            <mxPoint x="-79" y="240" as="targetPoint" />
          </mxGeometry>
        </mxCell>
        <mxCell id="1R7T_758eBagGcp3pDIk-37" value="Fibbonaciho posloupnost rekurzivně" style="rounded=1;whiteSpace=wrap;html=1;fillColor=#d5e8d4;strokeColor=#82b366;" parent="cuUNJkLqR6fL_RDQFLcp-103" vertex="1">
          <mxGeometry x="181" y="256.25" width="120" height="53.75" as="geometry" />
        </mxCell>
        <mxCell id="1R7T_758eBagGcp3pDIk-38" value="" style="endArrow=classic;html=1;rounded=0;" parent="cuUNJkLqR6fL_RDQFLcp-103" source="1R7T_758eBagGcp3pDIk-35" target="1R7T_758eBagGcp3pDIk-37" edge="1">
          <mxGeometry width="50" height="50" relative="1" as="geometry">
            <mxPoint x="304" y="195" as="sourcePoint" />
            <mxPoint x="271" y="220" as="targetPoint" />
          </mxGeometry>
        </mxCell>
        <mxCell id="1R7T_758eBagGcp3pDIk-39" value="Fibbonaciho posloupnost iterativně" style="rounded=1;whiteSpace=wrap;html=1;fillColor=#d5e8d4;strokeColor=#82b366;" parent="cuUNJkLqR6fL_RDQFLcp-103" vertex="1">
          <mxGeometry x="181" y="136.25" width="90" height="60" as="geometry" />
        </mxCell>
        <mxCell id="1R7T_758eBagGcp3pDIk-43" value="Vyhledávání metodou půlení intervalu" style="rounded=1;whiteSpace=wrap;html=1;fillColor=#d5e8d4;strokeColor=#82b366;" parent="cuUNJkLqR6fL_RDQFLcp-103" vertex="1">
          <mxGeometry x="339" y="400" width="130" height="40" as="geometry" />
        </mxCell>
        <mxCell id="1R7T_758eBagGcp3pDIk-44" value="Bubble sort" style="rounded=1;whiteSpace=wrap;html=1;fillColor=#d5e8d4;strokeColor=#82b366;" parent="cuUNJkLqR6fL_RDQFLcp-103" vertex="1">
          <mxGeometry x="189" y="380" width="85" height="30" as="geometry" />
        </mxCell>
        <mxCell id="1R7T_758eBagGcp3pDIk-45" value="Quick sort" style="rounded=1;whiteSpace=wrap;html=1;fillColor=#d5e8d4;strokeColor=#82b366;" parent="cuUNJkLqR6fL_RDQFLcp-103" vertex="1">
          <mxGeometry x="189" y="420" width="85" height="30" as="geometry" />
        </mxCell>
        <mxCell id="1R7T_758eBagGcp3pDIk-46" value="Merge sort" style="rounded=1;whiteSpace=wrap;html=1;fillColor=#d5e8d4;strokeColor=#82b366;" parent="cuUNJkLqR6fL_RDQFLcp-103" vertex="1">
          <mxGeometry x="189" y="460" width="85" height="30" as="geometry" />
        </mxCell>
        <mxCell id="1R7T_758eBagGcp3pDIk-47" value="Spojový seznam&lt;br&gt;- lineární, kruhový, obousměrný" style="rounded=1;whiteSpace=wrap;html=1;fillColor=#d5e8d4;strokeColor=#82b366;" parent="cuUNJkLqR6fL_RDQFLcp-103" vertex="1">
          <mxGeometry x="115" y="640" width="185" height="40" as="geometry" />
        </mxCell>
        <mxCell id="1R7T_758eBagGcp3pDIk-48" value="Fronta" style="rounded=1;whiteSpace=wrap;html=1;" parent="cuUNJkLqR6fL_RDQFLcp-103" vertex="1">
          <mxGeometry x="25" y="570" width="55" height="30" as="geometry" />
        </mxCell>
        <mxCell id="1R7T_758eBagGcp3pDIk-49" value="Zásobník" style="rounded=1;whiteSpace=wrap;html=1;" parent="cuUNJkLqR6fL_RDQFLcp-103" vertex="1">
          <mxGeometry x="90" y="570" width="70" height="30" as="geometry" />
        </mxCell>
        <mxCell id="1R7T_758eBagGcp3pDIk-50" value="Binární strom" style="rounded=1;whiteSpace=wrap;html=1;" parent="cuUNJkLqR6fL_RDQFLcp-103" vertex="1">
          <mxGeometry x="167.5" y="570" width="62.5" height="40" as="geometry" />
        </mxCell>
        <mxCell id="1R7T_758eBagGcp3pDIk-51" value="BFS" style="rounded=1;whiteSpace=wrap;html=1;" parent="cuUNJkLqR6fL_RDQFLcp-103" vertex="1">
          <mxGeometry x="265" y="540" width="45" height="30" as="geometry" />
        </mxCell>
        <mxCell id="1R7T_758eBagGcp3pDIk-52" value="DFS" style="rounded=1;whiteSpace=wrap;html=1;" parent="cuUNJkLqR6fL_RDQFLcp-103" vertex="1">
          <mxGeometry x="265" y="580" width="45" height="30" as="geometry" />
        </mxCell>
        <mxCell id="1R7T_758eBagGcp3pDIk-53" value="" style="endArrow=classic;html=1;rounded=0;" parent="cuUNJkLqR6fL_RDQFLcp-103" source="1R7T_758eBagGcp3pDIk-50" target="1R7T_758eBagGcp3pDIk-51" edge="1">
          <mxGeometry width="50" height="50" relative="1" as="geometry">
            <mxPoint x="179" y="390" as="sourcePoint" />
            <mxPoint x="229" y="340" as="targetPoint" />
          </mxGeometry>
        </mxCell>
        <mxCell id="1R7T_758eBagGcp3pDIk-54" value="" style="endArrow=classic;html=1;rounded=0;" parent="cuUNJkLqR6fL_RDQFLcp-103" source="1R7T_758eBagGcp3pDIk-50" target="1R7T_758eBagGcp3pDIk-52" edge="1">
          <mxGeometry width="50" height="50" relative="1" as="geometry">
            <mxPoint x="240" y="588" as="sourcePoint" />
            <mxPoint x="275" y="574" as="targetPoint" />
          </mxGeometry>
        </mxCell>
        <mxCell id="1R7T_758eBagGcp3pDIk-55" value="Převod z libovolné číselné soustavy do desítkové a zpět" style="rounded=1;whiteSpace=wrap;html=1;" parent="cuUNJkLqR6fL_RDQFLcp-103" vertex="1">
          <mxGeometry x="310" y="480" width="175" height="40" as="geometry" />
        </mxCell>
        <mxCell id="OEbDG3I4mA1YqLGFAOzE-1" value="" style="endArrow=classic;html=1;rounded=0;" parent="cuUNJkLqR6fL_RDQFLcp-103" source="1R7T_758eBagGcp3pDIk-47" target="1R7T_758eBagGcp3pDIk-48" edge="1">
          <mxGeometry width="50" height="50" relative="1" as="geometry">
            <mxPoint x="-181" y="370" as="sourcePoint" />
            <mxPoint x="-131" y="320" as="targetPoint" />
          </mxGeometry>
        </mxCell>
        <mxCell id="OEbDG3I4mA1YqLGFAOzE-2" value="" style="endArrow=classic;html=1;rounded=0;" parent="cuUNJkLqR6fL_RDQFLcp-103" source="1R7T_758eBagGcp3pDIk-47" target="1R7T_758eBagGcp3pDIk-49" edge="1">
          <mxGeometry width="50" height="50" relative="1" as="geometry">
            <mxPoint x="176" y="650" as="sourcePoint" />
            <mxPoint x="90" y="608" as="targetPoint" />
          </mxGeometry>
        </mxCell>
        <mxCell id="OEbDG3I4mA1YqLGFAOzE-3" value="" style="endArrow=classic;html=1;rounded=0;" parent="cuUNJkLqR6fL_RDQFLcp-103" source="1R7T_758eBagGcp3pDIk-47" target="1R7T_758eBagGcp3pDIk-50" edge="1">
          <mxGeometry width="50" height="50" relative="1" as="geometry">
            <mxPoint x="186" y="660" as="sourcePoint" />
            <mxPoint x="100" y="618" as="targetPoint" />
          </mxGeometry>
        </mxCell>
        <mxCell id="OEbDG3I4mA1YqLGFAOzE-4" value="Řazení dat" style="rounded=1;whiteSpace=wrap;html=1;" parent="cuUNJkLqR6fL_RDQFLcp-103" vertex="1">
          <mxGeometry x="25" y="390" width="80" height="30" as="geometry" />
        </mxCell>
        <mxCell id="OEbDG3I4mA1YqLGFAOzE-5" value="" style="endArrow=classic;html=1;rounded=0;" parent="cuUNJkLqR6fL_RDQFLcp-103" source="1R7T_758eBagGcp3pDIk-44" target="OEbDG3I4mA1YqLGFAOzE-4" edge="1">
          <mxGeometry width="50" height="50" relative="1" as="geometry">
            <mxPoint x="176" y="650" as="sourcePoint" />
            <mxPoint x="90" y="608" as="targetPoint" />
          </mxGeometry>
        </mxCell>
        <mxCell id="OEbDG3I4mA1YqLGFAOzE-6" value="" style="endArrow=classic;html=1;rounded=0;" parent="cuUNJkLqR6fL_RDQFLcp-103" source="1R7T_758eBagGcp3pDIk-45" target="OEbDG3I4mA1YqLGFAOzE-4" edge="1">
          <mxGeometry width="50" height="50" relative="1" as="geometry">
            <mxPoint x="199" y="408" as="sourcePoint" />
            <mxPoint x="115" y="413" as="targetPoint" />
          </mxGeometry>
        </mxCell>
        <mxCell id="OEbDG3I4mA1YqLGFAOzE-7" value="" style="endArrow=classic;html=1;rounded=0;" parent="cuUNJkLqR6fL_RDQFLcp-103" source="1R7T_758eBagGcp3pDIk-46" target="OEbDG3I4mA1YqLGFAOzE-4" edge="1">
          <mxGeometry width="50" height="50" relative="1" as="geometry">
            <mxPoint x="199" y="437" as="sourcePoint" />
            <mxPoint x="115" y="422" as="targetPoint" />
          </mxGeometry>
        </mxCell>
        <mxCell id="OEbDG3I4mA1YqLGFAOzE-150" value="" style="endArrow=classic;html=1;rounded=0;" parent="cuUNJkLqR6fL_RDQFLcp-103" source="1R7T_758eBagGcp3pDIk-35" target="1R7T_758eBagGcp3pDIk-45" edge="1">
          <mxGeometry width="50" height="50" relative="1" as="geometry">
            <mxPoint x="120" y="360" as="sourcePoint" />
            <mxPoint x="170" y="310" as="targetPoint" />
          </mxGeometry>
        </mxCell>
        <mxCell id="OEbDG3I4mA1YqLGFAOzE-151" value="" style="endArrow=classic;html=1;rounded=0;" parent="cuUNJkLqR6fL_RDQFLcp-103" source="1R7T_758eBagGcp3pDIk-35" target="1R7T_758eBagGcp3pDIk-46" edge="1">
          <mxGeometry width="50" height="50" relative="1" as="geometry">
            <mxPoint x="352" y="266" as="sourcePoint" />
            <mxPoint x="251" y="430" as="targetPoint" />
          </mxGeometry>
        </mxCell>
        <mxCell id="OEbDG3I4mA1YqLGFAOzE-152" value="" style="endArrow=classic;html=1;rounded=0;" parent="cuUNJkLqR6fL_RDQFLcp-103" source="1R7T_758eBagGcp3pDIk-35" target="1R7T_758eBagGcp3pDIk-43" edge="1">
          <mxGeometry width="50" height="50" relative="1" as="geometry">
            <mxPoint x="354" y="266" as="sourcePoint" />
            <mxPoint x="249" y="470" as="targetPoint" />
          </mxGeometry>
        </mxCell>
        <mxCell id="1R7T_758eBagGcp3pDIk-1" value="Proměnné a datové typy" style="swimlane;whiteSpace=wrap;html=1;startSize=23;" parent="1" vertex="1">
          <mxGeometry x="-570" y="-620" width="369" height="230" as="geometry" />
        </mxCell>
        <mxCell id="1R7T_758eBagGcp3pDIk-2" value="&lt;div&gt;Proměnné&lt;/div&gt;" style="rounded=1;whiteSpace=wrap;html=1;fillColor=#d5e8d4;strokeColor=#82b366;" parent="1R7T_758eBagGcp3pDIk-1" vertex="1">
          <mxGeometry x="270.25" y="118.75" width="77.5" height="27.5" as="geometry" />
        </mxCell>
        <mxCell id="1R7T_758eBagGcp3pDIk-3" value="Základní datové typy" style="rounded=1;whiteSpace=wrap;html=1;fillColor=#d5e8d4;strokeColor=#82b366;" parent="1R7T_758eBagGcp3pDIk-1" vertex="1">
          <mxGeometry x="270.25" y="60" width="80" height="35" as="geometry" />
        </mxCell>
        <mxCell id="1R7T_758eBagGcp3pDIk-4" value="Výčtové datové typy" style="rounded=1;whiteSpace=wrap;html=1;fillColor=#d5e8d4;strokeColor=#82b366;" parent="1R7T_758eBagGcp3pDIk-1" vertex="1">
          <mxGeometry x="177.75" y="116.25" width="80" height="35" as="geometry" />
        </mxCell>
        <mxCell id="1R7T_758eBagGcp3pDIk-5" value="" style="endArrow=classic;html=1;rounded=0;" parent="1R7T_758eBagGcp3pDIk-1" target="1R7T_758eBagGcp3pDIk-4" edge="1">
          <mxGeometry width="50" height="50" relative="1" as="geometry">
            <mxPoint x="137.75" y="182.01923076923094" as="sourcePoint" />
            <mxPoint x="392.75" y="128.75" as="targetPoint" />
          </mxGeometry>
        </mxCell>
        <mxCell id="1R7T_758eBagGcp3pDIk-6" value="" style="endArrow=classic;html=1;rounded=0;" parent="1R7T_758eBagGcp3pDIk-1" source="1R7T_758eBagGcp3pDIk-3" target="1R7T_758eBagGcp3pDIk-2" edge="1">
          <mxGeometry width="50" height="50" relative="1" as="geometry">
            <mxPoint x="254.75" y="155.05999999999995" as="sourcePoint" />
            <mxPoint x="287.75" y="155.05999999999995" as="targetPoint" />
          </mxGeometry>
        </mxCell>
        <mxCell id="1R7T_758eBagGcp3pDIk-7" value="" style="endArrow=classic;html=1;rounded=0;" parent="1R7T_758eBagGcp3pDIk-1" source="1R7T_758eBagGcp3pDIk-4" target="1R7T_758eBagGcp3pDIk-2" edge="1">
          <mxGeometry width="50" height="50" relative="1" as="geometry">
            <mxPoint x="251.75" y="155.05999999999995" as="sourcePoint" />
            <mxPoint x="367.75" y="179.06" as="targetPoint" />
          </mxGeometry>
        </mxCell>
        <mxCell id="1R7T_758eBagGcp3pDIk-8" value="Indexované pole / List" style="rounded=1;whiteSpace=wrap;html=1;fillColor=#d5e8d4;strokeColor=#82b366;" parent="1R7T_758eBagGcp3pDIk-1" vertex="1">
          <mxGeometry x="67.75" y="175" width="80" height="35" as="geometry" />
        </mxCell>
        <mxCell id="1R7T_758eBagGcp3pDIk-9" value="" style="endArrow=classic;html=1;rounded=0;" parent="1R7T_758eBagGcp3pDIk-1" source="1R7T_758eBagGcp3pDIk-10" target="1R7T_758eBagGcp3pDIk-4" edge="1">
          <mxGeometry width="50" height="50" relative="1" as="geometry">
            <mxPoint x="167.75" y="123.85625000000005" as="sourcePoint" />
            <mxPoint x="288.75" y="156.25" as="targetPoint" />
          </mxGeometry>
        </mxCell>
        <mxCell id="1R7T_758eBagGcp3pDIk-10" value="Dvojice klíč-hodnota" style="swimlane;whiteSpace=wrap;html=1;" parent="1R7T_758eBagGcp3pDIk-1" vertex="1">
          <mxGeometry x="6" y="54.379999999999995" width="150" height="111.25" as="geometry" />
        </mxCell>
        <mxCell id="1R7T_758eBagGcp3pDIk-11" value="Asociativní pole" style="rounded=1;whiteSpace=wrap;html=1;" parent="1R7T_758eBagGcp3pDIk-10" vertex="1">
          <mxGeometry x="35" y="31.87" width="80" height="35" as="geometry" />
        </mxCell>
        <mxCell id="1R7T_758eBagGcp3pDIk-12" value="Slovník" style="rounded=1;whiteSpace=wrap;html=1;fillColor=#d5e8d4;strokeColor=#82b366;" parent="1R7T_758eBagGcp3pDIk-10" vertex="1">
          <mxGeometry x="47.5" y="71.25" width="55" height="31.25" as="geometry" />
        </mxCell>
        <mxCell id="1R7T_758eBagGcp3pDIk-13" value="Set" style="rounded=1;whiteSpace=wrap;html=1;fillColor=#d5e8d4;strokeColor=#82b366;" parent="1R7T_758eBagGcp3pDIk-1" vertex="1">
          <mxGeometry x="167.75" y="185" width="40" height="25" as="geometry" />
        </mxCell>
        <mxCell id="1R7T_758eBagGcp3pDIk-14" value="Tuple" style="rounded=1;whiteSpace=wrap;html=1;fillColor=#d5e8d4;strokeColor=#82b366;" parent="1R7T_758eBagGcp3pDIk-1" vertex="1">
          <mxGeometry x="217.75" y="185" width="40" height="25" as="geometry" />
        </mxCell>
        <mxCell id="1R7T_758eBagGcp3pDIk-15" value="" style="endArrow=classic;html=1;rounded=0;" parent="1R7T_758eBagGcp3pDIk-1" source="1R7T_758eBagGcp3pDIk-13" target="1R7T_758eBagGcp3pDIk-4" edge="1">
          <mxGeometry width="50" height="50" relative="1" as="geometry">
            <mxPoint x="-47.25" y="268.25" as="sourcePoint" />
            <mxPoint x="-22.25" y="274.25" as="targetPoint" />
          </mxGeometry>
        </mxCell>
        <mxCell id="1R7T_758eBagGcp3pDIk-16" value="" style="endArrow=classic;html=1;rounded=0;" parent="1R7T_758eBagGcp3pDIk-1" source="1R7T_758eBagGcp3pDIk-14" target="1R7T_758eBagGcp3pDIk-4" edge="1">
          <mxGeometry width="50" height="50" relative="1" as="geometry">
            <mxPoint x="155.75" y="231.25" as="sourcePoint" />
            <mxPoint x="186.75" y="209.25" as="targetPoint" />
          </mxGeometry>
        </mxCell>
        <mxCell id="1R7T_758eBagGcp3pDIk-18" value="" style="endArrow=classic;html=1;rounded=0;" parent="1" source="1R7T_758eBagGcp3pDIk-1" target="1R7T_758eBagGcp3pDIk-17" edge="1">
          <mxGeometry width="50" height="50" relative="1" as="geometry">
            <mxPoint x="-160" y="-230" as="sourcePoint" />
            <mxPoint x="-110" y="-280" as="targetPoint" />
          </mxGeometry>
        </mxCell>
        <mxCell id="1R7T_758eBagGcp3pDIk-20" value="" style="endArrow=classic;startArrow=classic;html=1;rounded=0;" parent="1" source="cuUNJkLqR6fL_RDQFLcp-35" target="cuUNJkLqR6fL_RDQFLcp-38" edge="1">
          <mxGeometry width="50" height="50" relative="1" as="geometry">
            <mxPoint x="-160" y="300" as="sourcePoint" />
            <mxPoint x="-110" y="250" as="targetPoint" />
          </mxGeometry>
        </mxCell>
        <mxCell id="1R7T_758eBagGcp3pDIk-21" value="" style="endArrow=classic;startArrow=classic;html=1;rounded=0;" parent="1" source="cuUNJkLqR6fL_RDQFLcp-43" target="cuUNJkLqR6fL_RDQFLcp-39" edge="1">
          <mxGeometry width="50" height="50" relative="1" as="geometry">
            <mxPoint x="-712" y="275" as="sourcePoint" />
            <mxPoint x="-598" y="195" as="targetPoint" />
          </mxGeometry>
        </mxCell>
        <mxCell id="1R7T_758eBagGcp3pDIk-27" value="" style="endArrow=classic;html=1;rounded=0;" parent="1" source="jX2C6xq7MHJStbMYzHnA-37" target="jX2C6xq7MHJStbMYzHnA-61" edge="1">
          <mxGeometry width="50" height="50" relative="1" as="geometry">
            <mxPoint x="450" y="510" as="sourcePoint" />
            <mxPoint x="500" y="460" as="targetPoint" />
          </mxGeometry>
        </mxCell>
        <mxCell id="1R7T_758eBagGcp3pDIk-28" value="" style="endArrow=classic;html=1;rounded=0;" parent="1" source="jX2C6xq7MHJStbMYzHnA-28" target="jX2C6xq7MHJStbMYzHnA-61" edge="1">
          <mxGeometry width="50" height="50" relative="1" as="geometry">
            <mxPoint x="450" y="510" as="sourcePoint" />
            <mxPoint x="500" y="460" as="targetPoint" />
          </mxGeometry>
        </mxCell>
        <mxCell id="1R7T_758eBagGcp3pDIk-29" value="" style="endArrow=classic;html=1;rounded=0;" parent="1" source="jX2C6xq7MHJStbMYzHnA-28" target="jX2C6xq7MHJStbMYzHnA-60" edge="1">
          <mxGeometry width="50" height="50" relative="1" as="geometry">
            <mxPoint x="580" y="696" as="sourcePoint" />
            <mxPoint x="805" y="520" as="targetPoint" />
          </mxGeometry>
        </mxCell>
        <mxCell id="1R7T_758eBagGcp3pDIk-56" value="Objektově orientované programování" style="swimlane;whiteSpace=wrap;html=1;" parent="1" vertex="1">
          <mxGeometry x="-430" y="-330" width="320" height="200" as="geometry" />
        </mxCell>
        <mxCell id="OEbDG3I4mA1YqLGFAOzE-40" value="Třída" style="rounded=1;whiteSpace=wrap;html=1;" parent="1R7T_758eBagGcp3pDIk-56" vertex="1">
          <mxGeometry x="7.75" y="30" width="42.25" height="20" as="geometry" />
        </mxCell>
        <mxCell id="OEbDG3I4mA1YqLGFAOzE-41" value="Objekt" style="rounded=1;whiteSpace=wrap;html=1;" parent="1R7T_758eBagGcp3pDIk-56" vertex="1">
          <mxGeometry x="7.75" y="70" width="42.25" height="20" as="geometry" />
        </mxCell>
        <mxCell id="OEbDG3I4mA1YqLGFAOzE-42" value="Instanční proměnná" style="rounded=1;whiteSpace=wrap;html=1;" parent="1R7T_758eBagGcp3pDIk-56" vertex="1">
          <mxGeometry x="7.75" y="100" width="62.25" height="40" as="geometry" />
        </mxCell>
        <mxCell id="OEbDG3I4mA1YqLGFAOzE-43" value="Statická proměnné" style="rounded=1;whiteSpace=wrap;html=1;" parent="1R7T_758eBagGcp3pDIk-56" vertex="1">
          <mxGeometry x="10" y="150" width="62.25" height="40" as="geometry" />
        </mxCell>
        <mxCell id="OEbDG3I4mA1YqLGFAOzE-44" value="Metody&lt;br&gt;(funkce třídy)" style="rounded=1;whiteSpace=wrap;html=1;" parent="1R7T_758eBagGcp3pDIk-56" vertex="1">
          <mxGeometry x="85" y="70" width="80" height="40" as="geometry" />
        </mxCell>
        <mxCell id="OEbDG3I4mA1YqLGFAOzE-45" value="Get" style="rounded=1;whiteSpace=wrap;html=1;" parent="1R7T_758eBagGcp3pDIk-56" vertex="1">
          <mxGeometry x="85" y="130" width="40" height="20" as="geometry" />
        </mxCell>
        <mxCell id="OEbDG3I4mA1YqLGFAOzE-46" value="Set" style="rounded=1;whiteSpace=wrap;html=1;" parent="1R7T_758eBagGcp3pDIk-56" vertex="1">
          <mxGeometry x="140" y="130" width="40" height="20" as="geometry" />
        </mxCell>
        <mxCell id="OEbDG3I4mA1YqLGFAOzE-47" value="Konstruktor" style="rounded=1;whiteSpace=wrap;html=1;" parent="1R7T_758eBagGcp3pDIk-56" vertex="1">
          <mxGeometry x="100" y="160" width="70" height="20" as="geometry" />
        </mxCell>
        <mxCell id="OEbDG3I4mA1YqLGFAOzE-49" value="" style="endArrow=classic;html=1;rounded=0;" parent="1R7T_758eBagGcp3pDIk-56" source="OEbDG3I4mA1YqLGFAOzE-40" target="OEbDG3I4mA1YqLGFAOzE-41" edge="1">
          <mxGeometry width="50" height="50" relative="1" as="geometry">
            <mxPoint x="50" y="210" as="sourcePoint" />
            <mxPoint x="100" y="160" as="targetPoint" />
          </mxGeometry>
        </mxCell>
        <mxCell id="OEbDG3I4mA1YqLGFAOzE-50" value="" style="endArrow=classic;html=1;rounded=0;" parent="1R7T_758eBagGcp3pDIk-56" source="OEbDG3I4mA1YqLGFAOzE-40" target="OEbDG3I4mA1YqLGFAOzE-44" edge="1">
          <mxGeometry width="50" height="50" relative="1" as="geometry">
            <mxPoint x="50" y="210" as="sourcePoint" />
            <mxPoint x="100" y="160" as="targetPoint" />
          </mxGeometry>
        </mxCell>
        <mxCell id="OEbDG3I4mA1YqLGFAOzE-52" value="" style="endArrow=classic;html=1;rounded=0;" parent="1R7T_758eBagGcp3pDIk-56" source="OEbDG3I4mA1YqLGFAOzE-41" target="OEbDG3I4mA1YqLGFAOzE-42" edge="1">
          <mxGeometry width="50" height="50" relative="1" as="geometry">
            <mxPoint x="58" y="60" as="sourcePoint" />
            <mxPoint x="97" y="80" as="targetPoint" />
          </mxGeometry>
        </mxCell>
        <mxCell id="OEbDG3I4mA1YqLGFAOzE-53" value="" style="endArrow=classic;html=1;rounded=0;" parent="1R7T_758eBagGcp3pDIk-56" source="OEbDG3I4mA1YqLGFAOzE-44" target="OEbDG3I4mA1YqLGFAOzE-45" edge="1">
          <mxGeometry width="50" height="50" relative="1" as="geometry">
            <mxPoint x="68" y="70" as="sourcePoint" />
            <mxPoint x="107" y="90" as="targetPoint" />
          </mxGeometry>
        </mxCell>
        <mxCell id="OEbDG3I4mA1YqLGFAOzE-54" value="" style="endArrow=classic;html=1;rounded=0;" parent="1R7T_758eBagGcp3pDIk-56" source="OEbDG3I4mA1YqLGFAOzE-44" target="OEbDG3I4mA1YqLGFAOzE-46" edge="1">
          <mxGeometry width="50" height="50" relative="1" as="geometry">
            <mxPoint x="78" y="80" as="sourcePoint" />
            <mxPoint x="117" y="100" as="targetPoint" />
          </mxGeometry>
        </mxCell>
        <mxCell id="OEbDG3I4mA1YqLGFAOzE-55" value="" style="endArrow=classic;html=1;rounded=0;" parent="1R7T_758eBagGcp3pDIk-56" source="OEbDG3I4mA1YqLGFAOzE-44" target="OEbDG3I4mA1YqLGFAOzE-47" edge="1">
          <mxGeometry width="50" height="50" relative="1" as="geometry">
            <mxPoint x="88" y="90" as="sourcePoint" />
            <mxPoint x="127" y="110" as="targetPoint" />
          </mxGeometry>
        </mxCell>
        <mxCell id="OEbDG3I4mA1YqLGFAOzE-56" value="Dědičnost" style="rounded=1;whiteSpace=wrap;html=1;" parent="1R7T_758eBagGcp3pDIk-56" vertex="1">
          <mxGeometry x="215" y="60" width="70" height="30" as="geometry" />
        </mxCell>
        <mxCell id="OEbDG3I4mA1YqLGFAOzE-57" value="Polymorfismus" style="rounded=1;whiteSpace=wrap;html=1;" parent="1R7T_758eBagGcp3pDIk-56" vertex="1">
          <mxGeometry x="200" y="130" width="100" height="30" as="geometry" />
        </mxCell>
        <mxCell id="OEbDG3I4mA1YqLGFAOzE-58" value="" style="endArrow=classic;html=1;rounded=0;" parent="1R7T_758eBagGcp3pDIk-56" source="OEbDG3I4mA1YqLGFAOzE-40" target="OEbDG3I4mA1YqLGFAOzE-56" edge="1">
          <mxGeometry width="50" height="50" relative="1" as="geometry">
            <mxPoint x="58" y="60" as="sourcePoint" />
            <mxPoint x="97" y="80" as="targetPoint" />
          </mxGeometry>
        </mxCell>
        <mxCell id="OEbDG3I4mA1YqLGFAOzE-59" value="" style="endArrow=classic;html=1;rounded=0;" parent="1R7T_758eBagGcp3pDIk-56" source="OEbDG3I4mA1YqLGFAOzE-56" target="OEbDG3I4mA1YqLGFAOzE-57" edge="1">
          <mxGeometry width="50" height="50" relative="1" as="geometry">
            <mxPoint x="68" y="70" as="sourcePoint" />
            <mxPoint x="107" y="90" as="targetPoint" />
          </mxGeometry>
        </mxCell>
        <mxCell id="1R7T_758eBagGcp3pDIk-58" value="" style="endArrow=classic;html=1;rounded=0;" parent="1" source="1R7T_758eBagGcp3pDIk-56" target="1R7T_758eBagGcp3pDIk-57" edge="1">
          <mxGeometry width="50" height="50" relative="1" as="geometry">
            <mxPoint x="-140" y="-290" as="sourcePoint" />
            <mxPoint x="-90" y="-340" as="targetPoint" />
          </mxGeometry>
        </mxCell>
        <mxCell id="1R7T_758eBagGcp3pDIk-59" value="GUI" style="swimlane;whiteSpace=wrap;html=1;" parent="1" vertex="1">
          <mxGeometry x="355" y="-660" width="230" height="170" as="geometry" />
        </mxCell>
        <mxCell id="1R7T_758eBagGcp3pDIk-60" value="Formulář" style="rounded=1;whiteSpace=wrap;html=1;" parent="1R7T_758eBagGcp3pDIk-59" vertex="1">
          <mxGeometry x="15" y="35" width="75" height="35" as="geometry" />
        </mxCell>
        <mxCell id="1R7T_758eBagGcp3pDIk-61" value="Herní grafika" style="rounded=1;whiteSpace=wrap;html=1;" parent="1R7T_758eBagGcp3pDIk-59" vertex="1">
          <mxGeometry x="105" y="33.75" width="85" height="36.25" as="geometry" />
        </mxCell>
        <mxCell id="1R7T_758eBagGcp3pDIk-62" value="Zobrazování dat" style="rounded=1;whiteSpace=wrap;html=1;" parent="1R7T_758eBagGcp3pDIk-59" vertex="1">
          <mxGeometry x="16" y="90" width="85" height="36.25" as="geometry" />
        </mxCell>
        <mxCell id="1R7T_758eBagGcp3pDIk-63" value="GUI - formulář" style="swimlane;whiteSpace=wrap;html=1;" parent="1" vertex="1">
          <mxGeometry x="70" y="-1000" width="240" height="270" as="geometry" />
        </mxCell>
        <mxCell id="OEbDG3I4mA1YqLGFAOzE-8" value="Pole pro zadání dat uživatelem" style="rounded=1;whiteSpace=wrap;html=1;" parent="1R7T_758eBagGcp3pDIk-63" vertex="1">
          <mxGeometry x="15" y="40" width="95" height="50" as="geometry" />
        </mxCell>
        <mxCell id="OEbDG3I4mA1YqLGFAOzE-9" value="Tlačítko" style="rounded=1;whiteSpace=wrap;html=1;" parent="1R7T_758eBagGcp3pDIk-63" vertex="1">
          <mxGeometry x="140" y="40" width="55" height="30" as="geometry" />
        </mxCell>
        <mxCell id="OEbDG3I4mA1YqLGFAOzE-10" value="Napojení funkce na tlačítko" style="rounded=1;whiteSpace=wrap;html=1;" parent="1R7T_758eBagGcp3pDIk-63" vertex="1">
          <mxGeometry x="120" y="105" width="95" height="50" as="geometry" />
        </mxCell>
        <mxCell id="OEbDG3I4mA1YqLGFAOzE-11" value="" style="endArrow=classic;html=1;rounded=0;" parent="1R7T_758eBagGcp3pDIk-63" source="OEbDG3I4mA1YqLGFAOzE-9" target="OEbDG3I4mA1YqLGFAOzE-10" edge="1">
          <mxGeometry width="50" height="50" relative="1" as="geometry">
            <mxPoint x="230" y="200" as="sourcePoint" />
            <mxPoint x="280" y="150" as="targetPoint" />
          </mxGeometry>
        </mxCell>
        <mxCell id="OEbDG3I4mA1YqLGFAOzE-12" value="Načtení dat od uživatele" style="rounded=1;whiteSpace=wrap;html=1;" parent="1R7T_758eBagGcp3pDIk-63" vertex="1">
          <mxGeometry x="15" y="115" width="95" height="40" as="geometry" />
        </mxCell>
        <mxCell id="OEbDG3I4mA1YqLGFAOzE-13" value="" style="endArrow=classic;html=1;rounded=0;" parent="1R7T_758eBagGcp3pDIk-63" source="OEbDG3I4mA1YqLGFAOzE-8" target="OEbDG3I4mA1YqLGFAOzE-12" edge="1">
          <mxGeometry width="50" height="50" relative="1" as="geometry">
            <mxPoint x="240" y="330" as="sourcePoint" />
            <mxPoint x="290" y="280" as="targetPoint" />
          </mxGeometry>
        </mxCell>
        <mxCell id="OEbDG3I4mA1YqLGFAOzE-14" value="Zobrazení výsledku výpočtu" style="rounded=1;whiteSpace=wrap;html=1;" parent="1R7T_758eBagGcp3pDIk-63" vertex="1">
          <mxGeometry x="72.5" y="200" width="87.5" height="50" as="geometry" />
        </mxCell>
        <mxCell id="OEbDG3I4mA1YqLGFAOzE-15" value="" style="endArrow=classic;html=1;rounded=0;" parent="1R7T_758eBagGcp3pDIk-63" source="OEbDG3I4mA1YqLGFAOzE-12" target="OEbDG3I4mA1YqLGFAOzE-14" edge="1">
          <mxGeometry width="50" height="50" relative="1" as="geometry">
            <mxPoint x="73" y="100" as="sourcePoint" />
            <mxPoint x="73" y="140" as="targetPoint" />
          </mxGeometry>
        </mxCell>
        <mxCell id="OEbDG3I4mA1YqLGFAOzE-16" value="" style="endArrow=classic;html=1;rounded=0;" parent="1R7T_758eBagGcp3pDIk-63" source="OEbDG3I4mA1YqLGFAOzE-10" target="OEbDG3I4mA1YqLGFAOzE-14" edge="1">
          <mxGeometry width="50" height="50" relative="1" as="geometry">
            <mxPoint x="86" y="180" as="sourcePoint" />
            <mxPoint x="107" y="210" as="targetPoint" />
          </mxGeometry>
        </mxCell>
        <mxCell id="1R7T_758eBagGcp3pDIk-64" value="GUI - herní grafika" style="swimlane;whiteSpace=wrap;html=1;" parent="1" vertex="1">
          <mxGeometry x="330" y="-1180" width="382.5" height="280" as="geometry" />
        </mxCell>
        <mxCell id="OEbDG3I4mA1YqLGFAOzE-22" value="Vykreslení základních geometrických tvarů (obdélník, elipsa, úsečka)" style="rounded=1;whiteSpace=wrap;html=1;" parent="1R7T_758eBagGcp3pDIk-64" vertex="1">
          <mxGeometry x="7.5" y="30" width="142.5" height="70" as="geometry" />
        </mxCell>
        <mxCell id="OEbDG3I4mA1YqLGFAOzE-23" value="Detekce kolize objektů" style="rounded=1;whiteSpace=wrap;html=1;" parent="1R7T_758eBagGcp3pDIk-64" vertex="1">
          <mxGeometry x="17.5" y="180" width="140" height="30" as="geometry" />
        </mxCell>
        <mxCell id="OEbDG3I4mA1YqLGFAOzE-24" value="Zpracování klávesnice (stisk klávesy)" style="rounded=1;whiteSpace=wrap;html=1;" parent="1R7T_758eBagGcp3pDIk-64" vertex="1">
          <mxGeometry x="180" y="155" width="140" height="40" as="geometry" />
        </mxCell>
        <mxCell id="OEbDG3I4mA1YqLGFAOzE-25" value="Zpracování myši (pozice, klik)" style="rounded=1;whiteSpace=wrap;html=1;" parent="1R7T_758eBagGcp3pDIk-64" vertex="1">
          <mxGeometry x="180" y="100" width="110" height="40" as="geometry" />
        </mxCell>
        <mxCell id="OEbDG3I4mA1YqLGFAOzE-26" value="Počítání času" style="rounded=1;whiteSpace=wrap;html=1;" parent="1R7T_758eBagGcp3pDIk-64" vertex="1">
          <mxGeometry x="310" y="30" width="65" height="30" as="geometry" />
        </mxCell>
        <mxCell id="OEbDG3I4mA1YqLGFAOzE-27" value="Počítání bodů a životů" style="rounded=1;whiteSpace=wrap;html=1;" parent="1R7T_758eBagGcp3pDIk-64" vertex="1">
          <mxGeometry x="37.5" y="230" width="100" height="40" as="geometry" />
        </mxCell>
        <mxCell id="OEbDG3I4mA1YqLGFAOzE-28" value="Animace/pohyb objektů" style="rounded=1;whiteSpace=wrap;html=1;" parent="1R7T_758eBagGcp3pDIk-64" vertex="1">
          <mxGeometry x="17.5" y="125" width="142.5" height="30" as="geometry" />
        </mxCell>
        <mxCell id="OEbDG3I4mA1YqLGFAOzE-29" value="Načtení/zobrazení obrázku ze souboru (pozadí, herní objekt)" style="rounded=1;whiteSpace=wrap;html=1;" parent="1R7T_758eBagGcp3pDIk-64" vertex="1">
          <mxGeometry x="160" y="30" width="140" height="55" as="geometry" />
        </mxCell>
        <mxCell id="OEbDG3I4mA1YqLGFAOzE-30" value="" style="endArrow=classic;html=1;rounded=0;" parent="1R7T_758eBagGcp3pDIk-64" source="OEbDG3I4mA1YqLGFAOzE-22" target="OEbDG3I4mA1YqLGFAOzE-28" edge="1">
          <mxGeometry width="50" height="50" relative="1" as="geometry">
            <mxPoint x="70" y="180" as="sourcePoint" />
            <mxPoint x="120" y="130" as="targetPoint" />
          </mxGeometry>
        </mxCell>
        <mxCell id="OEbDG3I4mA1YqLGFAOzE-31" value="" style="endArrow=classic;html=1;rounded=0;" parent="1R7T_758eBagGcp3pDIk-64" source="OEbDG3I4mA1YqLGFAOzE-29" target="OEbDG3I4mA1YqLGFAOzE-28" edge="1">
          <mxGeometry width="50" height="50" relative="1" as="geometry">
            <mxPoint x="99" y="110" as="sourcePoint" />
            <mxPoint x="127" y="200" as="targetPoint" />
          </mxGeometry>
        </mxCell>
        <mxCell id="OEbDG3I4mA1YqLGFAOzE-32" value="" style="endArrow=classic;html=1;rounded=0;" parent="1R7T_758eBagGcp3pDIk-64" source="OEbDG3I4mA1YqLGFAOzE-28" target="OEbDG3I4mA1YqLGFAOzE-23" edge="1">
          <mxGeometry width="50" height="50" relative="1" as="geometry">
            <mxPoint x="94" y="110" as="sourcePoint" />
            <mxPoint x="109" y="200" as="targetPoint" />
          </mxGeometry>
        </mxCell>
        <mxCell id="OEbDG3I4mA1YqLGFAOzE-34" value="" style="endArrow=classic;html=1;rounded=0;" parent="1R7T_758eBagGcp3pDIk-64" source="OEbDG3I4mA1YqLGFAOzE-23" target="OEbDG3I4mA1YqLGFAOzE-27" edge="1">
          <mxGeometry width="50" height="50" relative="1" as="geometry">
            <mxPoint x="193" y="95" as="sourcePoint" />
            <mxPoint x="124" y="135" as="targetPoint" />
          </mxGeometry>
        </mxCell>
        <mxCell id="OEbDG3I4mA1YqLGFAOzE-35" value="" style="endArrow=classic;html=1;rounded=0;" parent="1R7T_758eBagGcp3pDIk-64" source="OEbDG3I4mA1YqLGFAOzE-25" target="OEbDG3I4mA1YqLGFAOzE-28" edge="1">
          <mxGeometry width="50" height="50" relative="1" as="geometry">
            <mxPoint x="70" y="180" as="sourcePoint" />
            <mxPoint x="120" y="130" as="targetPoint" />
          </mxGeometry>
        </mxCell>
        <mxCell id="OEbDG3I4mA1YqLGFAOzE-36" value="" style="endArrow=classic;html=1;rounded=0;" parent="1R7T_758eBagGcp3pDIk-64" source="OEbDG3I4mA1YqLGFAOzE-24" target="OEbDG3I4mA1YqLGFAOzE-28" edge="1">
          <mxGeometry width="50" height="50" relative="1" as="geometry">
            <mxPoint x="70" y="180" as="sourcePoint" />
            <mxPoint x="120" y="130" as="targetPoint" />
          </mxGeometry>
        </mxCell>
        <mxCell id="OEbDG3I4mA1YqLGFAOzE-37" value="Přidávání/mazání objektů" style="rounded=1;whiteSpace=wrap;html=1;" parent="1R7T_758eBagGcp3pDIk-64" vertex="1">
          <mxGeometry x="220" y="230" width="150" height="30" as="geometry" />
        </mxCell>
        <mxCell id="OEbDG3I4mA1YqLGFAOzE-38" value="" style="endArrow=classic;html=1;rounded=0;" parent="1R7T_758eBagGcp3pDIk-64" source="OEbDG3I4mA1YqLGFAOzE-23" target="OEbDG3I4mA1YqLGFAOzE-37" edge="1">
          <mxGeometry width="50" height="50" relative="1" as="geometry">
            <mxPoint x="225" y="173" as="sourcePoint" />
            <mxPoint x="170" y="163" as="targetPoint" />
          </mxGeometry>
        </mxCell>
        <mxCell id="OEbDG3I4mA1YqLGFAOzE-39" value="" style="endArrow=classic;html=1;rounded=0;" parent="1R7T_758eBagGcp3pDIk-64" source="OEbDG3I4mA1YqLGFAOzE-26" target="OEbDG3I4mA1YqLGFAOzE-37" edge="1">
          <mxGeometry width="50" height="50" relative="1" as="geometry">
            <mxPoint x="158" y="220" as="sourcePoint" />
            <mxPoint x="239" y="240" as="targetPoint" />
          </mxGeometry>
        </mxCell>
        <mxCell id="1R7T_758eBagGcp3pDIk-65" value="GUI - zobrazování dat" style="swimlane;whiteSpace=wrap;html=1;" parent="1" vertex="1">
          <mxGeometry x="620" y="-890" width="290" height="200" as="geometry" />
        </mxCell>
        <mxCell id="OEbDG3I4mA1YqLGFAOzE-17" value="Spojnicový graf" style="rounded=1;whiteSpace=wrap;html=1;" parent="1R7T_758eBagGcp3pDIk-65" vertex="1">
          <mxGeometry x="20" y="40" width="100" height="30" as="geometry" />
        </mxCell>
        <mxCell id="OEbDG3I4mA1YqLGFAOzE-18" value="&lt;div&gt;Sloupcový graf&lt;br&gt;&lt;/div&gt;" style="rounded=1;whiteSpace=wrap;html=1;" parent="1R7T_758eBagGcp3pDIk-65" vertex="1">
          <mxGeometry x="20" y="85" width="100" height="30" as="geometry" />
        </mxCell>
        <mxCell id="OEbDG3I4mA1YqLGFAOzE-19" value="Popisky os" style="rounded=1;whiteSpace=wrap;html=1;" parent="1R7T_758eBagGcp3pDIk-65" vertex="1">
          <mxGeometry x="20" y="130" width="100" height="30" as="geometry" />
        </mxCell>
        <mxCell id="OEbDG3I4mA1YqLGFAOzE-20" value="Nastavení barvy, mřížky" style="rounded=1;whiteSpace=wrap;html=1;" parent="1R7T_758eBagGcp3pDIk-65" vertex="1">
          <mxGeometry x="140" y="40" width="100" height="30" as="geometry" />
        </mxCell>
        <mxCell id="OEbDG3I4mA1YqLGFAOzE-21" value="Legenda" style="rounded=1;whiteSpace=wrap;html=1;" parent="1R7T_758eBagGcp3pDIk-65" vertex="1">
          <mxGeometry x="140" y="90" width="70" height="30" as="geometry" />
        </mxCell>
        <mxCell id="1R7T_758eBagGcp3pDIk-66" value="" style="endArrow=classic;html=1;rounded=0;" parent="1" source="1R7T_758eBagGcp3pDIk-63" target="1R7T_758eBagGcp3pDIk-60" edge="1">
          <mxGeometry width="50" height="50" relative="1" as="geometry">
            <mxPoint x="560" y="-790" as="sourcePoint" />
            <mxPoint x="610" y="-840" as="targetPoint" />
          </mxGeometry>
        </mxCell>
        <mxCell id="1R7T_758eBagGcp3pDIk-67" value="" style="endArrow=classic;html=1;rounded=0;" parent="1" source="1R7T_758eBagGcp3pDIk-64" target="1R7T_758eBagGcp3pDIk-61" edge="1">
          <mxGeometry width="50" height="50" relative="1" as="geometry">
            <mxPoint x="408" y="-720" as="sourcePoint" />
            <mxPoint x="416" y="-615" as="targetPoint" />
          </mxGeometry>
        </mxCell>
        <mxCell id="1R7T_758eBagGcp3pDIk-68" value="" style="endArrow=classic;html=1;rounded=0;" parent="1" source="1R7T_758eBagGcp3pDIk-65" target="1R7T_758eBagGcp3pDIk-62" edge="1">
          <mxGeometry width="50" height="50" relative="1" as="geometry">
            <mxPoint x="418" y="-710" as="sourcePoint" />
            <mxPoint x="426" y="-605" as="targetPoint" />
          </mxGeometry>
        </mxCell>
        <mxCell id="OEbDG3I4mA1YqLGFAOzE-60" value="" style="endArrow=classic;html=1;rounded=0;fillColor=#d5e8d4;strokeColor=#82b366;" parent="1" source="jX2C6xq7MHJStbMYzHnA-130" target="OEbDG3I4mA1YqLGFAOzE-44" edge="1">
          <mxGeometry width="50" height="50" relative="1" as="geometry">
            <mxPoint x="-120" y="-340" as="sourcePoint" />
            <mxPoint x="-70" y="-390" as="targetPoint" />
          </mxGeometry>
        </mxCell>
        <mxCell id="OEbDG3I4mA1YqLGFAOzE-98" value="" style="endArrow=classic;html=1;rounded=0;" parent="1" source="1R7T_758eBagGcp3pDIk-30" target="OEbDG3I4mA1YqLGFAOzE-69" edge="1">
          <mxGeometry width="50" height="50" relative="1" as="geometry">
            <mxPoint x="1270" y="-30" as="sourcePoint" />
            <mxPoint x="1320" y="-80" as="targetPoint" />
          </mxGeometry>
        </mxCell>
        <mxCell id="OEbDG3I4mA1YqLGFAOzE-99" value="" style="endArrow=classic;html=1;rounded=0;" parent="1" source="1R7T_758eBagGcp3pDIk-32" target="OEbDG3I4mA1YqLGFAOzE-71" edge="1">
          <mxGeometry width="50" height="50" relative="1" as="geometry">
            <mxPoint x="1610" y="-239" as="sourcePoint" />
            <mxPoint x="1098" y="-216" as="targetPoint" />
          </mxGeometry>
        </mxCell>
        <mxCell id="OEbDG3I4mA1YqLGFAOzE-101" value="" style="endArrow=classic;html=1;rounded=0;" parent="1" source="1R7T_758eBagGcp3pDIk-31" target="OEbDG3I4mA1YqLGFAOzE-70" edge="1">
          <mxGeometry width="50" height="50" relative="1" as="geometry">
            <mxPoint x="1620" y="-229" as="sourcePoint" />
            <mxPoint x="1108" y="-206" as="targetPoint" />
          </mxGeometry>
        </mxCell>
        <mxCell id="OEbDG3I4mA1YqLGFAOzE-103" value="" style="endArrow=classic;html=1;rounded=0;" parent="1" source="cuUNJkLqR6fL_RDQFLcp-115" target="OEbDG3I4mA1YqLGFAOzE-64" edge="1">
          <mxGeometry width="50" height="50" relative="1" as="geometry">
            <mxPoint x="1640" y="-209" as="sourcePoint" />
            <mxPoint x="1128" y="-186" as="targetPoint" />
          </mxGeometry>
        </mxCell>
        <mxCell id="1R7T_758eBagGcp3pDIk-31" value="Minimum/maximum ze tří proměnných" style="rounded=1;whiteSpace=wrap;html=1;fillColor=#d5e8d4;strokeColor=#82b366;" parent="1" vertex="1">
          <mxGeometry x="1600" y="-220" width="140" height="35" as="geometry" />
        </mxCell>
        <mxCell id="OEbDG3I4mA1YqLGFAOzE-102" value="" style="endArrow=classic;html=1;rounded=0;" parent="1" source="1R7T_758eBagGcp3pDIk-33" target="OEbDG3I4mA1YqLGFAOzE-72" edge="1">
          <mxGeometry width="50" height="50" relative="1" as="geometry">
            <mxPoint x="1630" y="-219" as="sourcePoint" />
            <mxPoint x="1118" y="-196" as="targetPoint" />
          </mxGeometry>
        </mxCell>
        <mxCell id="OEbDG3I4mA1YqLGFAOzE-106" value="" style="endArrow=classic;html=1;rounded=0;" parent="1" source="cuUNJkLqR6fL_RDQFLcp-119" target="OEbDG3I4mA1YqLGFAOzE-68" edge="1">
          <mxGeometry width="50" height="50" relative="1" as="geometry">
            <mxPoint x="1771" y="-132" as="sourcePoint" />
            <mxPoint x="1209" y="-106" as="targetPoint" />
          </mxGeometry>
        </mxCell>
        <mxCell id="OEbDG3I4mA1YqLGFAOzE-107" value="" style="endArrow=classic;html=1;rounded=0;" parent="1" source="OEbDG3I4mA1YqLGFAOzE-80" target="OEbDG3I4mA1YqLGFAOzE-65" edge="1">
          <mxGeometry width="50" height="50" relative="1" as="geometry">
            <mxPoint x="1781" y="-122" as="sourcePoint" />
            <mxPoint x="1219" y="-96" as="targetPoint" />
          </mxGeometry>
        </mxCell>
        <mxCell id="OEbDG3I4mA1YqLGFAOzE-108" value="" style="endArrow=classic;html=1;rounded=0;" parent="1" source="1R7T_758eBagGcp3pDIk-34" target="OEbDG3I4mA1YqLGFAOzE-73" edge="1">
          <mxGeometry width="50" height="50" relative="1" as="geometry">
            <mxPoint x="1791" y="-112" as="sourcePoint" />
            <mxPoint x="1229" y="-86" as="targetPoint" />
          </mxGeometry>
        </mxCell>
        <mxCell id="OEbDG3I4mA1YqLGFAOzE-109" value="" style="endArrow=classic;html=1;rounded=0;" parent="1" source="cuUNJkLqR6fL_RDQFLcp-117" target="OEbDG3I4mA1YqLGFAOzE-66" edge="1">
          <mxGeometry width="50" height="50" relative="1" as="geometry">
            <mxPoint x="1801" y="-102" as="sourcePoint" />
            <mxPoint x="1239" y="-76" as="targetPoint" />
          </mxGeometry>
        </mxCell>
        <mxCell id="OEbDG3I4mA1YqLGFAOzE-110" value="" style="endArrow=classic;html=1;rounded=0;" parent="1" source="cuUNJkLqR6fL_RDQFLcp-118" target="OEbDG3I4mA1YqLGFAOzE-67" edge="1">
          <mxGeometry width="50" height="50" relative="1" as="geometry">
            <mxPoint x="1811" y="-92" as="sourcePoint" />
            <mxPoint x="1249" y="-66" as="targetPoint" />
          </mxGeometry>
        </mxCell>
        <mxCell id="OEbDG3I4mA1YqLGFAOzE-111" value="" style="endArrow=classic;html=1;rounded=0;" parent="1" source="1R7T_758eBagGcp3pDIk-37" target="OEbDG3I4mA1YqLGFAOzE-76" edge="1">
          <mxGeometry width="50" height="50" relative="1" as="geometry">
            <mxPoint x="1821" y="-82" as="sourcePoint" />
            <mxPoint x="1259" y="-56" as="targetPoint" />
          </mxGeometry>
        </mxCell>
        <mxCell id="OEbDG3I4mA1YqLGFAOzE-112" value="" style="endArrow=classic;html=1;rounded=0;" parent="1" source="1R7T_758eBagGcp3pDIk-44" target="OEbDG3I4mA1YqLGFAOzE-80" edge="1">
          <mxGeometry width="50" height="50" relative="1" as="geometry">
            <mxPoint x="1831" y="-72" as="sourcePoint" />
            <mxPoint x="1269" y="-46" as="targetPoint" />
          </mxGeometry>
        </mxCell>
        <mxCell id="OEbDG3I4mA1YqLGFAOzE-113" value="" style="endArrow=classic;html=1;rounded=0;" parent="1" source="1R7T_758eBagGcp3pDIk-45" target="OEbDG3I4mA1YqLGFAOzE-81" edge="1">
          <mxGeometry width="50" height="50" relative="1" as="geometry">
            <mxPoint x="1841" y="-62" as="sourcePoint" />
            <mxPoint x="1279" y="-36" as="targetPoint" />
          </mxGeometry>
        </mxCell>
        <mxCell id="OEbDG3I4mA1YqLGFAOzE-115" value="" style="endArrow=classic;html=1;rounded=0;" parent="1" source="1R7T_758eBagGcp3pDIk-43" target="OEbDG3I4mA1YqLGFAOzE-79" edge="1">
          <mxGeometry width="50" height="50" relative="1" as="geometry">
            <mxPoint x="1861" y="-42" as="sourcePoint" />
            <mxPoint x="1299" y="-16" as="targetPoint" />
          </mxGeometry>
        </mxCell>
        <mxCell id="OEbDG3I4mA1YqLGFAOzE-116" value="" style="endArrow=classic;html=1;rounded=0;" parent="1" source="1R7T_758eBagGcp3pDIk-55" target="OEbDG3I4mA1YqLGFAOzE-90" edge="1">
          <mxGeometry width="50" height="50" relative="1" as="geometry">
            <mxPoint x="1871" y="-32" as="sourcePoint" />
            <mxPoint x="1309" y="-6" as="targetPoint" />
          </mxGeometry>
        </mxCell>
        <mxCell id="OEbDG3I4mA1YqLGFAOzE-117" value="" style="endArrow=classic;html=1;rounded=0;" parent="1" source="1R7T_758eBagGcp3pDIk-48" target="OEbDG3I4mA1YqLGFAOzE-83" edge="1">
          <mxGeometry width="50" height="50" relative="1" as="geometry">
            <mxPoint x="1881" y="-22" as="sourcePoint" />
            <mxPoint x="1319" y="4" as="targetPoint" />
          </mxGeometry>
        </mxCell>
        <mxCell id="OEbDG3I4mA1YqLGFAOzE-118" value="" style="endArrow=classic;html=1;rounded=0;" parent="1" source="1R7T_758eBagGcp3pDIk-49" target="OEbDG3I4mA1YqLGFAOzE-84" edge="1">
          <mxGeometry width="50" height="50" relative="1" as="geometry">
            <mxPoint x="1891" y="-12" as="sourcePoint" />
            <mxPoint x="1329" y="14" as="targetPoint" />
          </mxGeometry>
        </mxCell>
        <mxCell id="OEbDG3I4mA1YqLGFAOzE-120" value="" style="endArrow=classic;html=1;rounded=0;" parent="1" source="cuUNJkLqR6fL_RDQFLcp-101" target="jX2C6xq7MHJStbMYzHnA-92" edge="1">
          <mxGeometry width="50" height="50" relative="1" as="geometry">
            <mxPoint x="610" y="-250" as="sourcePoint" />
            <mxPoint x="660" y="-300" as="targetPoint" />
          </mxGeometry>
        </mxCell>
        <mxCell id="OEbDG3I4mA1YqLGFAOzE-127" value="" style="endArrow=classic;html=1;rounded=0;" parent="1" source="jX2C6xq7MHJStbMYzHnA-124" target="OEbDG3I4mA1YqLGFAOzE-128" edge="1">
          <mxGeometry width="50" height="50" relative="1" as="geometry">
            <mxPoint x="610" y="-250" as="sourcePoint" />
            <mxPoint x="660" y="-300" as="targetPoint" />
          </mxGeometry>
        </mxCell>
        <mxCell id="OEbDG3I4mA1YqLGFAOzE-130" value="" style="endArrow=classic;html=1;rounded=0;" parent="1" source="1R7T_758eBagGcp3pDIk-17" target="jX2C6xq7MHJStbMYzHnA-92" edge="1">
          <mxGeometry width="50" height="50" relative="1" as="geometry">
            <mxPoint x="460" y="-190" as="sourcePoint" />
            <mxPoint x="510" y="-240" as="targetPoint" />
          </mxGeometry>
        </mxCell>
        <mxCell id="OEbDG3I4mA1YqLGFAOzE-133" value="" style="endArrow=classic;html=1;rounded=0;" parent="1" source="jX2C6xq7MHJStbMYzHnA-135" target="OEbDG3I4mA1YqLGFAOzE-131" edge="1">
          <mxGeometry width="50" height="50" relative="1" as="geometry">
            <mxPoint x="480" as="sourcePoint" />
            <mxPoint x="530" y="-50" as="targetPoint" />
          </mxGeometry>
        </mxCell>
        <mxCell id="OEbDG3I4mA1YqLGFAOzE-134" value="" style="endArrow=classic;html=1;rounded=0;" parent="1" source="jX2C6xq7MHJStbMYzHnA-130" target="jX2C6xq7MHJStbMYzHnA-92" edge="1">
          <mxGeometry width="50" height="50" relative="1" as="geometry">
            <mxPoint x="480" as="sourcePoint" />
            <mxPoint x="530" y="-50" as="targetPoint" />
          </mxGeometry>
        </mxCell>
        <mxCell id="OEbDG3I4mA1YqLGFAOzE-145" value="" style="endArrow=classic;html=1;rounded=0;" parent="1" source="cuUNJkLqR6fL_RDQFLcp-116" target="OEbDG3I4mA1YqLGFAOzE-80" edge="1">
          <mxGeometry width="50" height="50" relative="1" as="geometry">
            <mxPoint x="1600" y="-96" as="sourcePoint" />
            <mxPoint x="980" y="-92" as="targetPoint" />
          </mxGeometry>
        </mxCell>
        <mxCell id="OEbDG3I4mA1YqLGFAOzE-80" value="Bubble sort" style="rounded=1;whiteSpace=wrap;html=1;" parent="1" vertex="1">
          <mxGeometry x="1159" y="-109.37" width="85" height="30" as="geometry" />
        </mxCell>
        <mxCell id="OEbDG3I4mA1YqLGFAOzE-146" value="" style="endArrow=classic;html=1;rounded=0;" parent="1" source="1R7T_758eBagGcp3pDIk-46" target="OEbDG3I4mA1YqLGFAOzE-79" edge="1">
          <mxGeometry width="50" height="50" relative="1" as="geometry">
            <mxPoint x="1769" y="173" as="sourcePoint" />
            <mxPoint x="1263" y="272" as="targetPoint" />
          </mxGeometry>
        </mxCell>
        <mxCell id="OEbDG3I4mA1YqLGFAOzE-147" value="" style="endArrow=classic;html=1;rounded=0;" parent="1" source="jX2C6xq7MHJStbMYzHnA-124" target="OEbDG3I4mA1YqLGFAOzE-132" edge="1">
          <mxGeometry width="50" height="50" relative="1" as="geometry">
            <mxPoint x="238" y="-402" as="sourcePoint" />
            <mxPoint x="837" y="-196" as="targetPoint" />
          </mxGeometry>
        </mxCell>
        <mxCell id="OEbDG3I4mA1YqLGFAOzE-148" value="" style="endArrow=classic;html=1;rounded=0;" parent="1" source="jX2C6xq7MHJStbMYzHnA-135" target="OEbDG3I4mA1YqLGFAOzE-132" edge="1">
          <mxGeometry width="50" height="50" relative="1" as="geometry">
            <mxPoint x="248" y="-392" as="sourcePoint" />
            <mxPoint x="847" y="-186" as="targetPoint" />
          </mxGeometry>
        </mxCell>
        <mxCell id="OEbDG3I4mA1YqLGFAOzE-149" value="" style="endArrow=classic;html=1;rounded=0;" parent="1" source="1R7T_758eBagGcp3pDIk-35" target="OEbDG3I4mA1YqLGFAOzE-135" edge="1">
          <mxGeometry width="50" height="50" relative="1" as="geometry">
            <mxPoint x="1700" y="50" as="sourcePoint" />
            <mxPoint x="1750" as="targetPoint" />
          </mxGeometry>
        </mxCell>
        <mxCell id="OEbDG3I4mA1YqLGFAOzE-153" value="" style="endArrow=classic;html=1;rounded=0;" parent="1" source="1R7T_758eBagGcp3pDIk-59" target="jX2C6xq7MHJStbMYzHnA-7" edge="1">
          <mxGeometry width="50" height="50" relative="1" as="geometry">
            <mxPoint x="640" y="-200" as="sourcePoint" />
            <mxPoint x="690" y="-250" as="targetPoint" />
          </mxGeometry>
        </mxCell>
        <mxCell id="OEbDG3I4mA1YqLGFAOzE-154" value="" style="endArrow=classic;html=1;rounded=0;" parent="1" source="jX2C6xq7MHJStbMYzHnA-255" target="1R7T_758eBagGcp3pDIk-63" edge="1">
          <mxGeometry width="50" height="50" relative="1" as="geometry">
            <mxPoint x="490" y="-790" as="sourcePoint" />
            <mxPoint x="540" y="-840" as="targetPoint" />
          </mxGeometry>
        </mxCell>
        <mxCell id="OEbDG3I4mA1YqLGFAOzE-155" value="" style="endArrow=classic;html=1;rounded=0;" parent="1" source="jX2C6xq7MHJStbMYzHnA-255" target="1R7T_758eBagGcp3pDIk-64" edge="1">
          <mxGeometry width="50" height="50" relative="1" as="geometry">
            <mxPoint x="490" y="-700" as="sourcePoint" />
            <mxPoint x="540" y="-750" as="targetPoint" />
          </mxGeometry>
        </mxCell>
        <mxCell id="OEbDG3I4mA1YqLGFAOzE-156" value="" style="endArrow=classic;html=1;rounded=0;" parent="1" source="1R7T_758eBagGcp3pDIk-17" target="1R7T_758eBagGcp3pDIk-65" edge="1">
          <mxGeometry width="50" height="50" relative="1" as="geometry">
            <mxPoint x="490" y="-650" as="sourcePoint" />
            <mxPoint x="540" y="-700" as="targetPoint" />
          </mxGeometry>
        </mxCell>
        <mxCell id="OEbDG3I4mA1YqLGFAOzE-157" value="" style="endArrow=classic;html=1;rounded=0;" parent="1" source="jX2C6xq7MHJStbMYzHnA-130" target="1R7T_758eBagGcp3pDIk-65" edge="1">
          <mxGeometry width="50" height="50" relative="1" as="geometry">
            <mxPoint x="490" y="-650" as="sourcePoint" />
            <mxPoint x="540" y="-700" as="targetPoint" />
          </mxGeometry>
        </mxCell>
        <mxCell id="OEbDG3I4mA1YqLGFAOzE-158" value="" style="endArrow=classic;html=1;rounded=0;" parent="1" source="1R7T_758eBagGcp3pDIk-39" target="OEbDG3I4mA1YqLGFAOzE-78" edge="1">
          <mxGeometry width="50" height="50" relative="1" as="geometry">
            <mxPoint x="1120" y="70" as="sourcePoint" />
            <mxPoint x="1170" y="20" as="targetPoint" />
          </mxGeometry>
        </mxCell>
      </root>
    </mxGraphModel>
  </diagram>
</mxfile>
